<svg version="1.1" xmlns="http://www.w3.org/2000/svg" xmlns:xlink="http://www.w3.org/1999/xlink" width="861" height="1715"><defs></defs><g><g transform="translate(-142,-46) scale(1,1)"><rect fill="#ffffff" stroke="none" x="208" y="960" width="616" height="791"></rect></g><g transform="translate(-142,-46) scale(1,1)"><path fill="none" stroke="#000000" d="M 208 960 L 824 960 L 824 1751 L 208 1751 L 208 960 Z Z" stroke-miterlimit="10"></path></g><g transform="translate(-142,-46) scale(1,1)"><rect fill="#ffffff" stroke="none" x="240" y="88" width="295" height="775"></rect></g><g transform="translate(-142,-46) scale(1,1)"><path fill="none" stroke="#000000" d="M 240 88 L 535 88 L 535 863 L 240 863 L 240 88 Z Z" stroke-miterlimit="10"></path></g><g transform="translate(-142,-46) scale(1,1)"><rect fill="#ffffff" stroke="none" x="208" y="928" width="616" height="32"></rect></g><g transform="translate(-142,-46) scale(1,1)"><path fill="none" stroke="#000000" d="M 208 928 L 824 928 L 824 960 L 208 960 L 208 928 Z Z" stroke-miterlimit="10"></path></g><g transform="translate(-142,-46) scale(1,1)"><g><path fill="none" stroke="none"></path><text fill="#000000" stroke="none" font-family="Arial" font-size="13px" font-style="normal" font-weight="normal" text-decoration="none" x="486" y="950.5">Main Loop</text></g></g><g transform="translate(-142,-46) scale(1,1)"><path fill="#ffffff" stroke="none" d="M 256 1017.5 L 313.5 992 L 371 1017.5 L 313.5 1043 L 256 1017.5"></path></g><g transform="translate(-142,-46) scale(1,1)"><path fill="none" stroke="#000000" d="M 256 1017.5 L 313.5 992 L 371 1017.5 L 313.5 1043 L 256 1017.5 L 256 1017.5" stroke-miterlimit="10"></path></g><g transform="translate(-142,-46) scale(1,1)"><g><path fill="none" stroke="none"></path><text fill="#000000" stroke="none" font-family="Arial" font-size="13px" font-style="normal" font-weight="normal" text-decoration="none" x="286.5" y="1017.5">Has Sum</text><text fill="#000000" stroke="none" font-family="Arial" font-size="13px" font-style="normal" font-weight="normal" text-decoration="none" x="284.5" y="1030.5">Changed?</text></g></g><g transform="translate(-142,-46) scale(1,1)"><rect fill="#ffffff" stroke="none" x="280" y="120" width="74" height="45"></rect></g><g transform="translate(-142,-46) scale(1,1)"><path fill="none" stroke="#000000" d="M 280 120 L 354 120 L 354 165 L 280 165 L 280 120 Z Z" stroke-miterlimit="10"></path></g><g transform="translate(-142,-46) scale(1,1)"><g><path fill="none" stroke="none"></path><text fill="#000000" stroke="none" font-family="Arial" font-size="13px" font-style="normal" font-weight="normal" text-decoration="none" x="300.5" y="142.5">Begin</text><text fill="#000000" stroke="none" font-family="Arial" font-size="13px" font-style="normal" font-weight="normal" text-decoration="none" x="300.5" y="155.5">Serial</text></g></g><g transform="translate(-142,-46) scale(1,1)"><rect fill="#ffffff" stroke="none" x="280" y="336" width="74" height="58"></rect></g><g transform="translate(-142,-46) scale(1,1)"><path fill="none" stroke="#000000" d="M 280 336 L 354 336 L 354 394 L 280 394 L 280 336 Z Z" stroke-miterlimit="10"></path></g><g transform="translate(-142,-46) scale(1,1)"><g><path fill="none" stroke="none"></path><text fill="#000000" stroke="none" font-family="Arial" font-size="13px" font-style="normal" font-weight="normal" text-decoration="none" x="297" y="358.5">Enable</text><text fill="#000000" stroke="none" font-family="Arial" font-size="13px" font-style="normal" font-weight="normal" text-decoration="none" x="300" y="371.5">Reset</text><text fill="#000000" stroke="none" font-family="Arial" font-size="13px" font-style="normal" font-weight="normal" text-decoration="none" x="307.5" y="384.5">Pin</text></g></g><g transform="translate(-142,-46) scale(1,1)"><rect fill="#ffffff" stroke="none" x="432" y="704" width="74" height="48"></rect></g><g transform="translate(-142,-46) scale(1,1)"><path fill="none" stroke="#000000" d="M 432 704 L 506 704 L 506 752 L 432 752 L 432 704 Z Z" stroke-miterlimit="10"></path></g><g transform="translate(-142,-46) scale(1,1)"><g><path fill="none" stroke="none"></path><text fill="#000000" stroke="none" font-family="Arial" font-size="13px" font-style="normal" font-weight="normal" text-decoration="none" x="445.5" y="726.5">Initialise</text><text fill="#000000" stroke="none" font-family="Arial" font-size="13px" font-style="normal" font-weight="normal" text-decoration="none" x="456.5" y="739.5">LCD</text></g></g><g transform="translate(-142,-46) scale(1,1)"><path fill="#ffffff" stroke="none" d="M 262 728 L 315.5 696 L 369 728 L 315.5 760 L 262 728"></path></g><g transform="translate(-142,-46) scale(1,1)"><path fill="none" stroke="#000000" d="M 262 728 L 315.5 696 L 369 728 L 315.5 760 L 262 728 L 262 728" stroke-miterlimit="10"></path></g><g transform="translate(-142,-46) scale(1,1)"><g><path fill="none" stroke="none"></path><text fill="#000000" stroke="none" font-family="Arial" font-size="13px" font-style="normal" font-weight="normal" text-decoration="none" x="296" y="728">Is LCD</text><text fill="#000000" stroke="none" font-family="Arial" font-size="13px" font-style="normal" font-weight="normal" text-decoration="none" x="288.5" y="741">Enabled?</text></g></g><g transform="translate(-142,-46) scale(1,1)"><path fill="none" stroke="#000000" d="M 369 728 L 432 728" stroke-miterlimit="10"></path></g><g transform="translate(-142,-46) scale(1,1)"><path fill="#000000" stroke="none" d="M 421.83732514237585 732.209517756016 L 432 728 L 421.83732514237585 723.790482243984"></path></g><g transform="translate(-142,-46) scale(1,1)"><path fill="none" stroke="#000000" d="M 421.83732514237585 732.209517756016 L 432 728 L 421.83732514237585 723.790482243984 L 421.83732514237585 732.209517756016" stroke-miterlimit="10"></path></g><g transform="translate(-142,-46) scale(1,1)"><g><path fill="none" stroke="none"></path><text fill="#000000" stroke="none" font-family="Arial" font-size="13px" font-style="normal" font-weight="normal" text-decoration="none" x="388.5" y="719.5">Yes</text></g></g><g transform="translate(-142,-46) scale(1,1)"><path fill="#ffffff" stroke="none" d="M 248 486.5 L 316.5 448 L 385 486.5 L 316.5 525 L 248 486.5"></path></g><g transform="translate(-142,-46) scale(1,1)"><path fill="none" stroke="#000000" d="M 248 486.5 L 316.5 448 L 385 486.5 L 316.5 525 L 248 486.5 L 248 486.5" stroke-miterlimit="10"></path></g><g transform="translate(-142,-46) scale(1,1)"><g><path fill="none" stroke="none"></path><text fill="#000000" stroke="none" font-family="Arial" font-size="13px" font-style="normal" font-weight="normal" text-decoration="none" x="311.5" y="480">Is</text><text fill="#000000" stroke="none" font-family="Arial" font-size="13px" font-style="normal" font-weight="normal" text-decoration="none" x="282" y="493">Persistence</text><text fill="#000000" stroke="none" font-family="Arial" font-size="13px" font-style="normal" font-weight="normal" text-decoration="none" x="289.5" y="506">Enabled?</text></g></g><g transform="translate(-142,-46) scale(1,1)"><rect fill="#ffffff" stroke="none" x="440" y="464" width="76" height="48"></rect></g><g transform="translate(-142,-46) scale(1,1)"><path fill="none" stroke="#000000" d="M 440 464 L 516 464 L 516 512 L 440 512 L 440 464 Z Z" stroke-miterlimit="10"></path></g><g transform="translate(-142,-46) scale(1,1)"><g><path fill="none" stroke="none"></path><text fill="#000000" stroke="none" font-family="Arial" font-size="13px" font-style="normal" font-weight="normal" text-decoration="none" x="463" y="486.5">Read</text><text fill="#000000" stroke="none" font-family="Arial" font-size="13px" font-style="normal" font-weight="normal" text-decoration="none" x="464.5" y="499.5">Sum</text></g></g><g transform="translate(-142,-46) scale(1,1)"><path fill="none" stroke="#000000" d="M 312 760 L 312 800" stroke-miterlimit="10"></path></g><g transform="translate(-142,-46) scale(1,1)"><path fill="#000000" stroke="none" d="M 307.790482243984 789.8373251423759 L 312 800 L 316.209517756016 789.8373251423759"></path></g><g transform="translate(-142,-46) scale(1,1)"><path fill="none" stroke="#000000" d="M 307.790482243984 789.8373251423759 L 312 800 L 316.209517756016 789.8373251423759 L 307.790482243984 789.8373251423759" stroke-miterlimit="10"></path></g><g transform="translate(-142,-46) scale(1,1)"><g><path fill="none" stroke="none"></path><text fill="#000000" stroke="none" font-family="Arial" font-size="13px" font-style="normal" font-weight="normal" text-decoration="none" x="317.5" y="785.5">No</text></g></g><g transform="translate(-142,-46) scale(1,1)"><path fill="none" stroke="#000000" d="M 385 491 L 440 491" stroke-miterlimit="10"></path></g><g transform="translate(-142,-46) scale(1,1)"><path fill="#000000" stroke="none" d="M 429.83732514237585 495.209517756016 L 440 491 L 429.83732514237585 486.790482243984"></path></g><g transform="translate(-142,-46) scale(1,1)"><path fill="none" stroke="#000000" d="M 429.83732514237585 495.209517756016 L 440 491 L 429.83732514237585 486.790482243984 L 429.83732514237585 495.209517756016" stroke-miterlimit="10"></path></g><g transform="translate(-142,-46) scale(1,1)"><g><path fill="none" stroke="none"></path><text fill="#000000" stroke="none" font-family="Arial" font-size="13px" font-style="normal" font-weight="normal" text-decoration="none" x="400.5" y="482.5">Yes</text></g></g><g transform="translate(-142,-46) scale(1,1)"><rect fill="#ffffff" stroke="none" x="272" y="568" width="80" height="32"></rect></g><g transform="translate(-142,-46) scale(1,1)"><path fill="none" stroke="#000000" d="M 272 568 L 352 568 L 352 600 L 272 600 L 272 568 Z Z" stroke-miterlimit="10"></path></g><g transform="translate(-142,-46) scale(1,1)"><g><path fill="none" stroke="none"></path><text fill="#000000" stroke="none" font-family="Arial" font-size="13px" font-style="normal" font-weight="normal" text-decoration="none" x="287" y="590.5">Sum = 0</text></g></g><g transform="translate(-142,-46) scale(1,1)"><path fill="none" stroke="#000000" d="M 312 525 L 312 568" stroke-miterlimit="10"></path></g><g transform="translate(-142,-46) scale(1,1)"><path fill="#000000" stroke="none" d="M 307.790482243984 557.8373251423759 L 312 568 L 316.209517756016 557.8373251423759"></path></g><g transform="translate(-142,-46) scale(1,1)"><path fill="none" stroke="#000000" d="M 307.790482243984 557.8373251423759 L 312 568 L 316.209517756016 557.8373251423759 L 307.790482243984 557.8373251423759" stroke-miterlimit="10"></path></g><g transform="translate(-142,-46) scale(1,1)"><g><path fill="none" stroke="none"></path><text fill="#000000" stroke="none" font-family="Arial" font-size="13px" font-style="normal" font-weight="normal" text-decoration="none" x="317.5" y="551.5">No</text></g></g><g transform="translate(-142,-46) scale(1,1)"><rect fill="#ffffff" stroke="none" x="280" y="208" width="74" height="84"></rect></g><g transform="translate(-142,-46) scale(1,1)"><path fill="none" stroke="#000000" d="M 280 208 L 354 208 L 354 292 L 280 292 L 280 208 Z Z" stroke-miterlimit="10"></path></g><g transform="translate(-142,-46) scale(1,1)"><g><path fill="none" stroke="none"></path><text fill="#000000" stroke="none" font-family="Arial" font-size="13px" font-style="normal" font-weight="normal" text-decoration="none" x="297" y="230.5">Enable</text><text fill="#000000" stroke="none" font-family="Arial" font-size="13px" font-style="normal" font-weight="normal" text-decoration="none" x="304" y="243.5">Coin</text><text fill="#000000" stroke="none" font-family="Arial" font-size="13px" font-style="normal" font-weight="normal" text-decoration="none" x="293.5" y="256.5">Interrupt</text><text fill="#000000" stroke="none" font-family="Arial" font-size="13px" font-style="normal" font-weight="normal" text-decoration="none" x="307.5" y="269.5">Pin</text><text fill="#000000" stroke="none" font-family="Arial" font-size="13px" font-style="normal" font-weight="normal" text-decoration="none" x="295" y="282.5">(Rising)</text></g></g><g transform="translate(-142,-46) scale(1,1)"><path fill="#ffffff" stroke="none" d="M 296 814.5 C 296 806.4918704 302.4918704 800 310.5 800 C 318.5081296 800 325 806.4918704 325 814.5 C 325 822.5081296 318.5081296 829 310.5 829 C 302.4918704 829 296 822.5081296 296 814.5 Z"></path></g><g transform="translate(-142,-46) scale(1,1)"><path fill="none" stroke="#000000" d="M 296 814.5 C 296 806.4918704 302.4918704 800 310.5 800 C 318.5081296 800 325 806.4918704 325 814.5 C 325 822.5081296 318.5081296 829 310.5 829 C 302.4918704 829 296 822.5081296 296 814.5 Z" stroke-miterlimit="10"></path></g><g transform="translate(-142,-46) scale(1,1)"><g><path fill="none" stroke="none"></path></g></g><g transform="translate(-142,-46) scale(1,1)"><path fill="none" stroke="#000000" d="M 317 292 L 317 336" stroke-miterlimit="10"></path></g><g transform="translate(-142,-46) scale(1,1)"><path fill="#000000" stroke="none" d="M 312.790482243984 325.83732514237585 L 317 336 L 321.209517756016 325.83732514237585"></path></g><g transform="translate(-142,-46) scale(1,1)"><path fill="none" stroke="#000000" d="M 312.790482243984 325.83732514237585 L 317 336 L 321.209517756016 325.83732514237585 L 312.790482243984 325.83732514237585" stroke-miterlimit="10"></path></g><g transform="translate(-142,-46) scale(1,1)"><path fill="none" stroke="#000000" d="M 317 165 L 317 208" stroke-miterlimit="10"></path></g><g transform="translate(-142,-46) scale(1,1)"><path fill="#000000" stroke="none" d="M 312.790482243984 197.83732514237585 L 317 208 L 321.209517756016 197.83732514237585"></path></g><g transform="translate(-142,-46) scale(1,1)"><path fill="none" stroke="#000000" d="M 312.790482243984 197.83732514237585 L 317 208 L 321.209517756016 197.83732514237585 L 312.790482243984 197.83732514237585" stroke-miterlimit="10"></path></g><g transform="translate(-142,-46) scale(1,1)"><rect fill="#ffffff" stroke="none" x="240" y="56" width="296" height="32"></rect></g><g transform="translate(-142,-46) scale(1,1)"><path fill="none" stroke="#000000" d="M 240 56 L 536 56 L 536 88 L 240 88 L 240 56 Z Z" stroke-miterlimit="10"></path></g><g transform="translate(-142,-46) scale(1,1)"><g><path fill="none" stroke="none"></path><text fill="#000000" stroke="none" font-family="Arial" font-size="13px" font-style="normal" font-weight="normal" text-decoration="none" x="371" y="78.5">Setup</text></g></g><g transform="translate(-142,-46) scale(1,1)"><path fill="none" stroke="#000000" d="M 317 88 L 317 120" stroke-miterlimit="10"></path></g><g transform="translate(-142,-46) scale(1,1)"><path fill="#000000" stroke="none" d="M 312.790482243984 109.83732514237585 L 317 120 L 321.209517756016 109.83732514237585"></path></g><g transform="translate(-142,-46) scale(1,1)"><path fill="none" stroke="#000000" d="M 312.790482243984 109.83732514237585 L 317 120 L 321.209517756016 109.83732514237585 L 312.790482243984 109.83732514237585" stroke-miterlimit="10"></path></g><g transform="translate(-142,-46) scale(1,1)"><path fill="#ffffff" stroke="none" d="M 296 638.5 C 296 630.4918704 302.4918704 624 310.5 624 C 318.5081296 624 325 630.4918704 325 638.5 C 325 646.5081296 318.5081296 653 310.5 653 C 302.4918704 653 296 646.5081296 296 638.5 Z"></path></g><g transform="translate(-142,-46) scale(1,1)"><path fill="none" stroke="#000000" d="M 296 638.5 C 296 630.4918704 302.4918704 624 310.5 624 C 318.5081296 624 325 630.4918704 325 638.5 C 325 646.5081296 318.5081296 653 310.5 653 C 302.4918704 653 296 646.5081296 296 638.5 Z" stroke-miterlimit="10"></path></g><g transform="translate(-142,-46) scale(1,1)"><g><path fill="none" stroke="none"></path></g></g><g transform="translate(-142,-46) scale(1,1)"><path fill="none" stroke="#000000" d="M 311 600 L 311 624" stroke-miterlimit="10"></path></g><g transform="translate(-142,-46) scale(1,1)"><path fill="#000000" stroke="none" d="M 306.790482243984 613.8373251423759 L 311 624 L 315.209517756016 613.8373251423759"></path></g><g transform="translate(-142,-46) scale(1,1)"><path fill="none" stroke="#000000" d="M 306.790482243984 613.8373251423759 L 311 624 L 315.209517756016 613.8373251423759 L 306.790482243984 613.8373251423759" stroke-miterlimit="10"></path></g><g transform="translate(-142,-46) scale(1,1)"><path fill="none" stroke="#000000" d="M 480 512 L 480 632 M 480 632 A 8 8 0 0 1 472 640 L 325 640" stroke-miterlimit="10"></path></g><g transform="translate(-142,-46) scale(1,1)"><path fill="#000000" stroke="none" d="M 335.16267485762415 635.790482243984 L 325 640 L 335.16267485762415 644.209517756016"></path></g><g transform="translate(-142,-46) scale(1,1)"><path fill="none" stroke="#000000" d="M 335.16267485762415 635.790482243984 L 325 640 L 335.16267485762415 644.209517756016 L 335.16267485762415 635.790482243984" stroke-miterlimit="10"></path></g><g transform="translate(-142,-46) scale(1,1)"><rect fill="#ffffff" stroke="none" x="432" y="792" width="74" height="45"></rect></g><g transform="translate(-142,-46) scale(1,1)"><path fill="none" stroke="#000000" d="M 432 792 L 506 792 L 506 837 L 432 837 L 432 792 Z Z" stroke-miterlimit="10"></path></g><g transform="translate(-142,-46) scale(1,1)"><g><path fill="none" stroke="none"></path><text fill="#000000" stroke="none" font-family="Arial" font-size="13px" font-style="normal" font-weight="normal" text-decoration="none" x="448.5" y="814.5">Update</text><text fill="#000000" stroke="none" font-family="Arial" font-size="13px" font-style="normal" font-weight="normal" text-decoration="none" x="456.5" y="827.5">LCD</text></g></g><g transform="translate(-142,-46) scale(1,1)"><path fill="none" stroke="#000000" d="M 469 752 L 469 792" stroke-miterlimit="10"></path></g><g transform="translate(-142,-46) scale(1,1)"><path fill="#000000" stroke="none" d="M 464.790482243984 781.8373251423759 L 469 792 L 473.209517756016 781.8373251423759"></path></g><g transform="translate(-142,-46) scale(1,1)"><path fill="none" stroke="#000000" d="M 464.790482243984 781.8373251423759 L 469 792 L 473.209517756016 781.8373251423759 L 464.790482243984 781.8373251423759" stroke-miterlimit="10"></path></g><g transform="translate(-142,-46) scale(1,1)"><path fill="none" stroke="#000000" d="M 432 814 L 325 814" stroke-miterlimit="10"></path></g><g transform="translate(-142,-46) scale(1,1)"><path fill="#000000" stroke="none" d="M 335.16267485762415 809.790482243984 L 325 814 L 335.16267485762415 818.209517756016"></path></g><g transform="translate(-142,-46) scale(1,1)"><path fill="none" stroke="#000000" d="M 335.16267485762415 809.790482243984 L 325 814 L 335.16267485762415 818.209517756016 L 335.16267485762415 809.790482243984" stroke-miterlimit="10"></path></g><g transform="translate(-142,-46) scale(1,1)"><path fill="none" stroke="#000000" d="M 311 653 L 311 696" stroke-miterlimit="10"></path></g><g transform="translate(-142,-46) scale(1,1)"><path fill="#000000" stroke="none" d="M 306.790482243984 685.8373251423759 L 311 696 L 315.209517756016 685.8373251423759"></path></g><g transform="translate(-142,-46) scale(1,1)"><path fill="none" stroke="#000000" d="M 306.790482243984 685.8373251423759 L 311 696 L 315.209517756016 685.8373251423759 L 306.790482243984 685.8373251423759" stroke-miterlimit="10"></path></g><g transform="translate(-142,-46) scale(1,1)"><path fill="none" stroke="#000000" d="M 310 829 L 310 928" stroke-miterlimit="10"></path></g><g transform="translate(-142,-46) scale(1,1)"><path fill="#000000" stroke="none" d="M 305.790482243984 917.8373251423759 L 310 928 L 314.209517756016 917.8373251423759"></path></g><g transform="translate(-142,-46) scale(1,1)"><path fill="none" stroke="#000000" d="M 305.790482243984 917.8373251423759 L 310 928 L 314.209517756016 917.8373251423759 L 305.790482243984 917.8373251423759" stroke-miterlimit="10"></path></g><g transform="translate(-142,-46) scale(1,1)"><rect fill="#ffffff" stroke="none" x="880" y="896" width="113" height="32"></rect></g><g transform="translate(-142,-46) scale(1,1)"><path fill="none" stroke="#000000" d="M 880 896 L 993 896 L 993 928 L 880 928 L 880 896 Z Z" stroke-miterlimit="10"></path></g><g transform="translate(-142,-46) scale(1,1)"><path fill="none" stroke="#000000" d="M 890 896 L 890 928" stroke-miterlimit="10"></path></g><g transform="translate(-142,-46) scale(1,1)"><path fill="none" stroke="#000000" d="M 880 906 L 993 906" stroke-miterlimit="10"></path></g><g transform="translate(-142,-46) scale(1,1)"><g><path fill="none" stroke="none"></path><text fill="#000000" stroke="none" font-family="Arial" font-size="13px" font-style="normal" font-weight="normal" text-decoration="none" x="913" y="923.5">EEPROM</text></g></g><g transform="translate(-142,-46) scale(1,1)"><path fill="none" stroke="#000000" d="M 936 896 L 936 496 M 936 496 A 8 8 0 0 0 928 488 L 877 488" stroke-miterlimit="10"></path></g><g transform="translate(-142,-46) scale(1,1)"><path fill="#000000" stroke="none" d="M 887.1626748576241 483.790482243984 L 877 488 L 887.1626748576241 492.209517756016"></path></g><g transform="translate(-142,-46) scale(1,1)"><path fill="none" stroke="#000000" d="M 887.1626748576241 483.790482243984 L 877 488 L 887.1626748576241 492.209517756016 L 887.1626748576241 483.790482243984" stroke-miterlimit="10"></path></g><g transform="translate(-142,-46) scale(1,1)"><rect fill="#ffffff" stroke="none" x="592" y="1200" width="74" height="45"></rect></g><g transform="translate(-142,-46) scale(1,1)"><path fill="none" stroke="#000000" d="M 592 1200 L 666 1200 L 666 1245 L 592 1245 L 592 1200 Z Z" stroke-miterlimit="10"></path></g><g transform="translate(-142,-46) scale(1,1)"><g><path fill="none" stroke="none"></path><text fill="#000000" stroke="none" font-family="Arial" font-size="13px" font-style="normal" font-weight="normal" text-decoration="none" x="608.5" y="1222.5">Update</text><text fill="#000000" stroke="none" font-family="Arial" font-size="13px" font-style="normal" font-weight="normal" text-decoration="none" x="616.5" y="1235.5">LCD</text></g></g><g transform="translate(-142,-46) scale(1,1)"><rect fill="#ffffff" stroke="none" x="600" y="1688" width="74" height="45"></rect></g><g transform="translate(-142,-46) scale(1,1)"><path fill="none" stroke="#000000" d="M 600 1688 L 674 1688 L 674 1733 L 600 1733 L 600 1688 Z Z" stroke-miterlimit="10"></path></g><g transform="translate(-142,-46) scale(1,1)"><g><path fill="none" stroke="none"></path><text fill="#000000" stroke="none" font-family="Arial" font-size="13px" font-style="normal" font-weight="normal" text-decoration="none" x="621.5" y="1710.5">Store</text><text fill="#000000" stroke="none" font-family="Arial" font-size="13px" font-style="normal" font-weight="normal" text-decoration="none" x="623.5" y="1723.5">Sum</text></g></g><g transform="translate(-142,-46) scale(1,1)"><rect fill="#ffffff" stroke="none" x="424" y="1000" width="100.5" height="40"></rect></g><g transform="translate(-142,-46) scale(1,1)"><path fill="#ffffff" stroke="none" d="M 524.5 1000 A 20.5 20.5 0 0 1 524.5 1041"></path></g><g transform="translate(-142,-46) scale(1,1)"><path fill="none" stroke="#000000" d="M 424 1000 L 424 1040" stroke-miterlimit="10"></path></g><g transform="translate(-142,-46) scale(1,1)"><path fill="none" stroke="#000000" d="M 424 1000 L 524.5 1000" stroke-miterlimit="10"></path></g><g transform="translate(-142,-46) scale(1,1)"><path fill="none" stroke="#000000" d="M 424 1041 L 524.5 1041" stroke-miterlimit="10"></path></g><g transform="translate(-142,-46) scale(1,1)"><path fill="none" stroke="#000000" d="M 524.5 1000 A 20.5 20.5 0 0 1 524.5 1041" stroke-miterlimit="10"></path></g><g transform="translate(-142,-46) scale(1,1)"><g><path fill="none" stroke="none"></path><text fill="#000000" stroke="none" font-family="Arial" font-size="13px" font-style="normal" font-weight="normal" text-decoration="none" x="428.25" y="1022.5">UPDATE_DELAY</text></g></g><g transform="translate(-142,-46) scale(1,1)"><path fill="none" stroke="#000000" d="M 371 1020 L 424 1020" stroke-miterlimit="10"></path></g><g transform="translate(-142,-46) scale(1,1)"><path fill="#000000" stroke="none" d="M 413.83732514237585 1024.2095177560159 L 424 1020 L 413.83732514237585 1015.790482243984"></path></g><g transform="translate(-142,-46) scale(1,1)"><path fill="none" stroke="#000000" d="M 413.83732514237585 1024.2095177560159 L 424 1020 L 413.83732514237585 1015.790482243984 L 413.83732514237585 1024.2095177560159" stroke-miterlimit="10"></path></g><g transform="translate(-142,-46) scale(1,1)"><g><path fill="none" stroke="none"></path><text fill="#000000" stroke="none" font-family="Arial" font-size="13px" font-style="normal" font-weight="normal" text-decoration="none" x="385.5" y="1011.5">Yes</text></g></g><g transform="translate(-142,-46) scale(1,1)"><rect fill="#ffffff" stroke="none" x="448" y="1088" width="74" height="58"></rect></g><g transform="translate(-142,-46) scale(1,1)"><path fill="none" stroke="#000000" d="M 448 1088 L 522 1088 L 522 1146 L 448 1146 L 448 1088 Z Z" stroke-miterlimit="10"></path></g><g transform="translate(-142,-46) scale(1,1)"><g><path fill="none" stroke="none"></path><text fill="#000000" stroke="none" font-family="Arial" font-size="13px" font-style="normal" font-weight="normal" text-decoration="none" x="470" y="1110.5">Send</text><text fill="#000000" stroke="none" font-family="Arial" font-size="13px" font-style="normal" font-weight="normal" text-decoration="none" x="460" y="1123.5">Sum Via</text><text fill="#000000" stroke="none" font-family="Arial" font-size="13px" font-style="normal" font-weight="normal" text-decoration="none" x="468.5" y="1136.5">Serial</text></g></g><g transform="translate(-142,-46) scale(1,1)"><path fill="#ffffff" stroke="none" d="M 865 1104 L 909 1104 L 900 1136 L 856 1136 L 865 1104"></path></g><g transform="translate(-142,-46) scale(1,1)"><path fill="none" stroke="#000000" d="M 865 1104 L 909 1104 L 900 1136 L 856 1136 L 865 1104 L 865 1104" stroke-miterlimit="10"></path></g><g transform="translate(-142,-46) scale(1,1)"><g><path fill="none" stroke="none"></path><text fill="#000000" stroke="none" font-family="Arial" font-size="13px" font-style="normal" font-weight="normal" text-decoration="none" x="869" y="1126.5">Sum</text></g></g><g transform="translate(-142,-46) scale(1,1)"><path fill="none" stroke="#000000" d="M 856 1120 L 522 1120" stroke-miterlimit="10"></path></g><g transform="translate(-142,-46) scale(1,1)"><path fill="#000000" stroke="none" d="M 532.1626748576241 1115.7904822439841 L 522 1120 L 532.1626748576241 1124.2095177560159"></path></g><g transform="translate(-142,-46) scale(1,1)"><path fill="none" stroke="#000000" d="M 532.1626748576241 1115.7904822439841 L 522 1120 L 532.1626748576241 1124.2095177560159 L 532.1626748576241 1115.7904822439841" stroke-miterlimit="10"></path></g><g transform="translate(-142,-46) scale(1,1)"><path fill="none" stroke="#000000" d="M 485 1040 L 485 1088" stroke-miterlimit="10"></path></g><g transform="translate(-142,-46) scale(1,1)"><path fill="#000000" stroke="none" d="M 480.790482243984 1077.837325142376 L 485 1088 L 489.209517756016 1077.837325142376"></path></g><g transform="translate(-142,-46) scale(1,1)"><path fill="none" stroke="#000000" d="M 480.790482243984 1077.837325142376 L 485 1088 L 489.209517756016 1077.837325142376 L 480.790482243984 1077.837325142376" stroke-miterlimit="10"></path></g><g transform="translate(-142,-46) scale(1,1)"><path fill="#ffffff" stroke="none" d="M 424 1217.5 L 480.5 1192 L 537 1217.5 L 480.5 1243 L 424 1217.5"></path></g><g transform="translate(-142,-46) scale(1,1)"><path fill="none" stroke="#000000" d="M 424 1217.5 L 480.5 1192 L 537 1217.5 L 480.5 1243 L 424 1217.5 L 424 1217.5" stroke-miterlimit="10"></path></g><g transform="translate(-142,-46) scale(1,1)"><g><path fill="none" stroke="none"></path><text fill="#000000" stroke="none" font-family="Arial" font-size="13px" font-style="normal" font-weight="normal" text-decoration="none" x="461" y="1217.5">Is LCD</text><text fill="#000000" stroke="none" font-family="Arial" font-size="13px" font-style="normal" font-weight="normal" text-decoration="none" x="453.5" y="1230.5">Enabled?</text></g></g><g transform="translate(-142,-46) scale(1,1)"><path fill="none" stroke="#000000" d="M 483 1146 L 483 1192" stroke-miterlimit="10"></path></g><g transform="translate(-142,-46) scale(1,1)"><path fill="#000000" stroke="none" d="M 478.790482243984 1181.837325142376 L 483 1192 L 487.209517756016 1181.837325142376"></path></g><g transform="translate(-142,-46) scale(1,1)"><path fill="none" stroke="#000000" d="M 478.790482243984 1181.837325142376 L 483 1192 L 487.209517756016 1181.837325142376 L 478.790482243984 1181.837325142376" stroke-miterlimit="10"></path></g><g transform="translate(-142,-46) scale(1,1)"><path fill="none" stroke="#000000" d="M 537 1221 L 592 1221" stroke-miterlimit="10"></path></g><g transform="translate(-142,-46) scale(1,1)"><path fill="#000000" stroke="none" d="M 581.8373251423759 1225.2095177560159 L 592 1221 L 581.8373251423758 1216.7904822439841"></path></g><g transform="translate(-142,-46) scale(1,1)"><path fill="none" stroke="#000000" d="M 581.8373251423759 1225.2095177560159 L 592 1221 L 581.8373251423758 1216.7904822439841 L 581.8373251423759 1225.2095177560159" stroke-miterlimit="10"></path></g><g transform="translate(-142,-46) scale(1,1)"><g><path fill="none" stroke="none"></path><text fill="#000000" stroke="none" font-family="Arial" font-size="13px" font-style="normal" font-weight="normal" text-decoration="none" x="552.5" y="1212.5">Yes</text></g></g><g transform="translate(-142,-46) scale(1,1)"><path fill="#ffffff" stroke="none" d="M 464 1310.5 C 464 1302.4918704 470.4918704 1296 478.5 1296 C 486.5081296 1296 493 1302.4918704 493 1310.5 C 493 1318.5081296 486.5081296 1325 478.5 1325 C 470.4918704 1325 464 1318.5081296 464 1310.5 Z"></path></g><g transform="translate(-142,-46) scale(1,1)"><path fill="none" stroke="#000000" d="M 464 1310.5 C 464 1302.4918704 470.4918704 1296 478.5 1296 C 486.5081296 1296 493 1302.4918704 493 1310.5 C 493 1318.5081296 486.5081296 1325 478.5 1325 C 470.4918704 1325 464 1318.5081296 464 1310.5 Z" stroke-miterlimit="10"></path></g><g transform="translate(-142,-46) scale(1,1)"><g><path fill="none" stroke="none"></path></g></g><g transform="translate(-142,-46) scale(1,1)"><path fill="none" stroke="#000000" d="M 479 1243 L 479 1296" stroke-miterlimit="10"></path></g><g transform="translate(-142,-46) scale(1,1)"><path fill="#000000" stroke="none" d="M 474.790482243984 1285.837325142376 L 479 1296 L 483.209517756016 1285.837325142376"></path></g><g transform="translate(-142,-46) scale(1,1)"><path fill="none" stroke="#000000" d="M 474.790482243984 1285.837325142376 L 479 1296 L 483.209517756016 1285.837325142376 L 474.790482243984 1285.837325142376" stroke-miterlimit="10"></path></g><g transform="translate(-142,-46) scale(1,1)"><g><path fill="none" stroke="none"></path><text fill="#000000" stroke="none" font-family="Arial" font-size="13px" font-style="normal" font-weight="normal" text-decoration="none" x="484.5" y="1274.5">No</text></g></g><g transform="translate(-142,-46) scale(1,1)"><path fill="none" stroke="#000000" d="M 632 1245 L 632 1304 M 632 1304 A 8 8 0 0 1 624 1312 L 493 1312" stroke-miterlimit="10"></path></g><g transform="translate(-142,-46) scale(1,1)"><path fill="#000000" stroke="none" d="M 503.16267485762415 1307.7904822439841 L 493 1312 L 503.16267485762415 1316.2095177560159"></path></g><g transform="translate(-142,-46) scale(1,1)"><path fill="none" stroke="#000000" d="M 503.16267485762415 1307.7904822439841 L 493 1312 L 503.16267485762415 1316.2095177560159 L 503.16267485762415 1307.7904822439841" stroke-miterlimit="10"></path></g><g transform="translate(-142,-46) scale(1,1)"><path fill="none" stroke="#000000" d="M 317 394 L 317 448" stroke-miterlimit="10"></path></g><g transform="translate(-142,-46) scale(1,1)"><path fill="#000000" stroke="none" d="M 312.790482243984 437.83732514237585 L 317 448 L 321.209517756016 437.83732514237585"></path></g><g transform="translate(-142,-46) scale(1,1)"><path fill="none" stroke="#000000" d="M 312.790482243984 437.83732514237585 L 317 448 L 321.209517756016 437.83732514237585 L 312.790482243984 437.83732514237585" stroke-miterlimit="10"></path></g><g transform="translate(-142,-46) scale(1,1)"><path fill="#ffffff" stroke="none" d="M 408 1414.5 L 476.5 1376 L 545 1414.5 L 476.5 1453 L 408 1414.5"></path></g><g transform="translate(-142,-46) scale(1,1)"><path fill="none" stroke="#000000" d="M 408 1414.5 L 476.5 1376 L 545 1414.5 L 476.5 1453 L 408 1414.5 L 408 1414.5" stroke-miterlimit="10"></path></g><g transform="translate(-142,-46) scale(1,1)"><g><path fill="none" stroke="none"></path><text fill="#000000" stroke="none" font-family="Arial" font-size="13px" font-style="normal" font-weight="normal" text-decoration="none" x="471.5" y="1408">Is</text><text fill="#000000" stroke="none" font-family="Arial" font-size="13px" font-style="normal" font-weight="normal" text-decoration="none" x="442" y="1421">Persistence</text><text fill="#000000" stroke="none" font-family="Arial" font-size="13px" font-style="normal" font-weight="normal" text-decoration="none" x="449.5" y="1434">Enabled?</text></g></g><g transform="translate(-142,-46) scale(1,1)"><path fill="none" stroke="#000000" d="M 478 1325 L 478 1376" stroke-miterlimit="10"></path></g><g transform="translate(-142,-46) scale(1,1)"><path fill="#000000" stroke="none" d="M 473.790482243984 1365.837325142376 L 478 1376 L 482.209517756016 1365.837325142376"></path></g><g transform="translate(-142,-46) scale(1,1)"><path fill="none" stroke="#000000" d="M 473.790482243984 1365.837325142376 L 478 1376 L 482.209517756016 1365.837325142376 L 473.790482243984 1365.837325142376" stroke-miterlimit="10"></path></g><g transform="translate(-142,-46) scale(1,1)"><path fill="#ffffff" stroke="none" d="M 584 1414.5 L 640.5 1376 L 697 1414.5 L 640.5 1453 L 584 1414.5"></path></g><g transform="translate(-142,-46) scale(1,1)"><path fill="none" stroke="#000000" d="M 584 1414.5 L 640.5 1376 L 697 1414.5 L 640.5 1453 L 584 1414.5 L 584 1414.5" stroke-miterlimit="10"></path></g><g transform="translate(-142,-46) scale(1,1)"><g><path fill="none" stroke="none"></path><text fill="#000000" stroke="none" font-family="Arial" font-size="13px" font-style="normal" font-weight="normal" text-decoration="none" x="623.5" y="1408">Reset</text><text fill="#000000" stroke="none" font-family="Arial" font-size="13px" font-style="normal" font-weight="normal" text-decoration="none" x="621.5" y="1421">Button</text><text fill="#000000" stroke="none" font-family="Arial" font-size="13px" font-style="normal" font-weight="normal" text-decoration="none" x="613" y="1434">Pressed?</text></g></g><g transform="translate(-142,-46) scale(1,1)"><path fill="none" stroke="#000000" d="M 545 1414 L 584 1414" stroke-miterlimit="10"></path></g><g transform="translate(-142,-46) scale(1,1)"><path fill="#000000" stroke="none" d="M 573.8373251423759 1418.2095177560159 L 584 1414 L 573.8373251423758 1409.7904822439841"></path></g><g transform="translate(-142,-46) scale(1,1)"><path fill="none" stroke="#000000" d="M 573.8373251423759 1418.2095177560159 L 584 1414 L 573.8373251423758 1409.7904822439841 L 573.8373251423759 1418.2095177560159" stroke-miterlimit="10"></path></g><g transform="translate(-142,-46) scale(1,1)"><g><path fill="none" stroke="none"></path><text fill="#000000" stroke="none" font-family="Arial" font-size="13px" font-style="normal" font-weight="normal" text-decoration="none" x="552.5" y="1405.5">Yes</text></g></g><g transform="translate(-142,-46) scale(1,1)"><rect fill="#ffffff" stroke="none" x="736" y="1400" width="74" height="32"></rect></g><g transform="translate(-142,-46) scale(1,1)"><path fill="none" stroke="#000000" d="M 736 1400 L 810 1400 L 810 1432 L 736 1432 L 736 1400 Z Z" stroke-miterlimit="10"></path></g><g transform="translate(-142,-46) scale(1,1)"><g><path fill="none" stroke="none"></path><text fill="#000000" stroke="none" font-family="Arial" font-size="13px" font-style="normal" font-weight="normal" text-decoration="none" x="748" y="1422.5">Sum = 0</text></g></g><g transform="translate(-142,-46) scale(1,1)"><path fill="#ffffff" stroke="none" d="M 161 568 L 205 568 L 196 600 L 152 600 L 161 568"></path></g><g transform="translate(-142,-46) scale(1,1)"><path fill="none" stroke="#000000" d="M 161 568 L 205 568 L 196 600 L 152 600 L 161 568 L 161 568" stroke-miterlimit="10"></path></g><g transform="translate(-142,-46) scale(1,1)"><g><path fill="none" stroke="none"></path><text fill="#000000" stroke="none" font-family="Arial" font-size="13px" font-style="normal" font-weight="normal" text-decoration="none" x="165" y="590.5">Sum</text></g></g><g transform="translate(-142,-46) scale(1,1)"><path fill="none" stroke="#000000" d="M 272 584 L 205 584" stroke-miterlimit="10"></path></g><g transform="translate(-142,-46) scale(1,1)"><path fill="#000000" stroke="none" d="M 215.16267485762415 579.790482243984 L 205 584 L 215.16267485762415 588.209517756016"></path></g><g transform="translate(-142,-46) scale(1,1)"><path fill="none" stroke="#000000" d="M 215.16267485762415 579.790482243984 L 205 584 L 215.16267485762415 588.209517756016 L 215.16267485762415 579.790482243984" stroke-miterlimit="10"></path></g><g transform="translate(-142,-46) scale(1,1)"><path fill="#ffffff" stroke="none" d="M 865 1400 L 909 1400 L 900 1432 L 856 1432 L 865 1400"></path></g><g transform="translate(-142,-46) scale(1,1)"><path fill="none" stroke="#000000" d="M 865 1400 L 909 1400 L 900 1432 L 856 1432 L 865 1400 L 865 1400" stroke-miterlimit="10"></path></g><g transform="translate(-142,-46) scale(1,1)"><g><path fill="none" stroke="none"></path><text fill="#000000" stroke="none" font-family="Arial" font-size="13px" font-style="normal" font-weight="normal" text-decoration="none" x="869" y="1422.5">Sum</text></g></g><g transform="translate(-142,-46) scale(1,1)"><path fill="none" stroke="#000000" d="M 810 1416 L 856 1416" stroke-miterlimit="10"></path></g><g transform="translate(-142,-46) scale(1,1)"><path fill="#000000" stroke="none" d="M 845.8373251423759 1420.2095177560159 L 856 1416 L 845.8373251423758 1411.7904822439841"></path></g><g transform="translate(-142,-46) scale(1,1)"><path fill="none" stroke="#000000" d="M 845.8373251423759 1420.2095177560159 L 856 1416 L 845.8373251423758 1411.7904822439841 L 845.8373251423759 1420.2095177560159" stroke-miterlimit="10"></path></g><g transform="translate(-142,-46) scale(1,1)"><path fill="none" stroke="#000000" d="M 697 1415 L 736 1415" stroke-miterlimit="10"></path></g><g transform="translate(-142,-46) scale(1,1)"><path fill="#000000" stroke="none" d="M 725.8373251423759 1419.2095177560159 L 736 1415 L 725.8373251423758 1410.7904822439841"></path></g><g transform="translate(-142,-46) scale(1,1)"><path fill="none" stroke="#000000" d="M 725.8373251423759 1419.2095177560159 L 736 1415 L 725.8373251423758 1410.7904822439841 L 725.8373251423759 1419.2095177560159" stroke-miterlimit="10"></path></g><g transform="translate(-142,-46) scale(1,1)"><g><path fill="none" stroke="none"></path><text fill="#000000" stroke="none" font-family="Arial" font-size="13px" font-style="normal" font-weight="normal" text-decoration="none" x="704.5" y="1406.5">Yes</text></g></g><g transform="translate(-142,-46) scale(1,1)"><path fill="#ffffff" stroke="none" d="M 624 1510.5 C 624 1502.4918704 630.4918704 1496 638.5 1496 C 646.5081296 1496 653 1502.4918704 653 1510.5 C 653 1518.5081296 646.5081296 1525 638.5 1525 C 630.4918704 1525 624 1518.5081296 624 1510.5 Z"></path></g><g transform="translate(-142,-46) scale(1,1)"><path fill="none" stroke="#000000" d="M 624 1510.5 C 624 1502.4918704 630.4918704 1496 638.5 1496 C 646.5081296 1496 653 1502.4918704 653 1510.5 C 653 1518.5081296 646.5081296 1525 638.5 1525 C 630.4918704 1525 624 1518.5081296 624 1510.5 Z" stroke-miterlimit="10"></path></g><g transform="translate(-142,-46) scale(1,1)"><g><path fill="none" stroke="none"></path></g></g><g transform="translate(-142,-46) scale(1,1)"><path fill="none" stroke="#000000" d="M 639 1453 L 639 1496" stroke-miterlimit="10"></path></g><g transform="translate(-142,-46) scale(1,1)"><path fill="#000000" stroke="none" d="M 634.790482243984 1485.837325142376 L 639 1496 L 643.209517756016 1485.837325142376"></path></g><g transform="translate(-142,-46) scale(1,1)"><path fill="none" stroke="#000000" d="M 634.790482243984 1485.837325142376 L 639 1496 L 643.209517756016 1485.837325142376 L 634.790482243984 1485.837325142376" stroke-miterlimit="10"></path></g><g transform="translate(-142,-46) scale(1,1)"><g><path fill="none" stroke="none"></path><text fill="#000000" stroke="none" font-family="Arial" font-size="13px" font-style="normal" font-weight="normal" text-decoration="none" x="644.5" y="1479.5">No</text></g></g><g transform="translate(-142,-46) scale(1,1)"><path fill="none" stroke="#000000" d="M 776 1432 L 776 1504 M 776 1504 A 8 8 0 0 1 768 1512 L 653 1512" stroke-miterlimit="10"></path></g><g transform="translate(-142,-46) scale(1,1)"><path fill="#000000" stroke="none" d="M 663.1626748576241 1507.7904822439841 L 653 1512 L 663.1626748576241 1516.2095177560159"></path></g><g transform="translate(-142,-46) scale(1,1)"><path fill="none" stroke="#000000" d="M 663.1626748576241 1507.7904822439841 L 653 1512 L 663.1626748576241 1516.2095177560159 L 663.1626748576241 1507.7904822439841" stroke-miterlimit="10"></path></g><g transform="translate(-142,-46) scale(1,1)"><path fill="#ffffff" stroke="none" d="M 456 1510.5 C 456 1502.4918704 462.4918704 1496 470.5 1496 C 478.5081296 1496 485 1502.4918704 485 1510.5 C 485 1518.5081296 478.5081296 1525 470.5 1525 C 462.4918704 1525 456 1518.5081296 456 1510.5 Z"></path></g><g transform="translate(-142,-46) scale(1,1)"><path fill="none" stroke="#000000" d="M 456 1510.5 C 456 1502.4918704 462.4918704 1496 470.5 1496 C 478.5081296 1496 485 1502.4918704 485 1510.5 C 485 1518.5081296 478.5081296 1525 470.5 1525 C 462.4918704 1525 456 1518.5081296 456 1510.5 Z" stroke-miterlimit="10"></path></g><g transform="translate(-142,-46) scale(1,1)"><g><path fill="none" stroke="none"></path></g></g><g transform="translate(-142,-46) scale(1,1)"><path fill="none" stroke="#000000" d="M 472 1453 L 472 1496" stroke-miterlimit="10"></path></g><g transform="translate(-142,-46) scale(1,1)"><path fill="#000000" stroke="none" d="M 467.790482243984 1485.837325142376 L 472 1496 L 476.209517756016 1485.837325142376"></path></g><g transform="translate(-142,-46) scale(1,1)"><path fill="none" stroke="#000000" d="M 467.790482243984 1485.837325142376 L 472 1496 L 476.209517756016 1485.837325142376 L 467.790482243984 1485.837325142376" stroke-miterlimit="10"></path></g><g transform="translate(-142,-46) scale(1,1)"><g><path fill="none" stroke="none"></path><text fill="#000000" stroke="none" font-family="Arial" font-size="13px" font-style="normal" font-weight="normal" text-decoration="none" x="477.5" y="1479.5">No</text></g></g><g transform="translate(-142,-46) scale(1,1)"><path fill="#ffffff" stroke="none" d="M 544 1608 L 637.5 1576 L 731 1608 L 637.5 1640 L 544 1608"></path></g><g transform="translate(-142,-46) scale(1,1)"><path fill="none" stroke="#000000" d="M 544 1608 L 637.5 1576 L 731 1608 L 637.5 1640 L 544 1608 L 544 1608" stroke-miterlimit="10"></path></g><g transform="translate(-142,-46) scale(1,1)"><g><path fill="none" stroke="none"></path><text fill="#000000" stroke="none" font-family="Arial" font-size="13px" font-style="normal" font-weight="normal" text-decoration="none" x="590.5" y="1608">STORE_DELAY</text><text fill="#000000" stroke="none" font-family="Arial" font-size="13px" font-style="normal" font-weight="normal" text-decoration="none" x="605" y="1621">Exceeded?</text></g></g><g transform="translate(-142,-46) scale(1,1)"><path fill="none" stroke="#000000" d="M 638 1525 L 638 1576" stroke-miterlimit="10"></path></g><g transform="translate(-142,-46) scale(1,1)"><path fill="#000000" stroke="none" d="M 633.790482243984 1565.837325142376 L 638 1576 L 642.209517756016 1565.837325142376"></path></g><g transform="translate(-142,-46) scale(1,1)"><path fill="none" stroke="#000000" d="M 633.790482243984 1565.837325142376 L 638 1576 L 642.209517756016 1565.837325142376 L 633.790482243984 1565.837325142376" stroke-miterlimit="10"></path></g><g transform="translate(-142,-46) scale(1,1)"><path fill="none" stroke="#000000" d="M 637 1640 L 637 1688" stroke-miterlimit="10"></path></g><g transform="translate(-142,-46) scale(1,1)"><path fill="#000000" stroke="none" d="M 632.790482243984 1677.837325142376 L 637 1688 L 641.209517756016 1677.837325142376"></path></g><g transform="translate(-142,-46) scale(1,1)"><path fill="none" stroke="#000000" d="M 632.790482243984 1677.837325142376 L 637 1688 L 641.209517756016 1677.837325142376 L 632.790482243984 1677.837325142376" stroke-miterlimit="10"></path></g><g transform="translate(-142,-46) scale(1,1)"><g><path fill="none" stroke="none"></path><text fill="#000000" stroke="none" font-family="Arial" font-size="13px" font-style="normal" font-weight="normal" text-decoration="none" x="639.5" y="1669.5">Yes</text></g></g><g transform="translate(-142,-46) scale(1,1)"><path fill="none" stroke="#000000" d="M 909 1712 L 928 1712 M 928 1712 A 8 8 0 0 0 936 1704 L 936 928" stroke-miterlimit="10"></path></g><g transform="translate(-142,-46) scale(1,1)"><path fill="#000000" stroke="none" d="M 940.209517756016 938.1626748576241 L 936 928 L 931.790482243984 938.1626748576241"></path></g><g transform="translate(-142,-46) scale(1,1)"><path fill="none" stroke="#000000" d="M 940.209517756016 938.1626748576241 L 936 928 L 931.790482243984 938.1626748576241 L 940.209517756016 938.1626748576241" stroke-miterlimit="10"></path></g><g transform="translate(-142,-46) scale(1,1)"><path fill="#ffffff" stroke="none" d="M 865 1696 L 909 1696 L 900 1728 L 856 1728 L 865 1696"></path></g><g transform="translate(-142,-46) scale(1,1)"><path fill="none" stroke="#000000" d="M 865 1696 L 909 1696 L 900 1728 L 856 1728 L 865 1696 L 865 1696" stroke-miterlimit="10"></path></g><g transform="translate(-142,-46) scale(1,1)"><g><path fill="none" stroke="none"></path><text fill="#000000" stroke="none" font-family="Arial" font-size="13px" font-style="normal" font-weight="normal" text-decoration="none" x="869" y="1718.5">Sum</text></g></g><g transform="translate(-142,-46) scale(1,1)"><path fill="none" stroke="#000000" d="M 674 1712 L 856 1712" stroke-miterlimit="10"></path></g><g transform="translate(-142,-46) scale(1,1)"><path fill="#000000" stroke="none" d="M 845.8373251423759 1716.2095177560159 L 856 1712 L 845.8373251423758 1707.7904822439841"></path></g><g transform="translate(-142,-46) scale(1,1)"><path fill="none" stroke="#000000" d="M 845.8373251423759 1716.2095177560159 L 856 1712 L 845.8373251423758 1707.7904822439841 L 845.8373251423759 1716.2095177560159" stroke-miterlimit="10"></path></g><g transform="translate(-142,-46) scale(1,1)"><path fill="#ffffff" stroke="none" d="M 833 472 L 877 472 L 868 504 L 824 504 L 833 472"></path></g><g transform="translate(-142,-46) scale(1,1)"><path fill="none" stroke="#000000" d="M 833 472 L 877 472 L 868 504 L 824 504 L 833 472 L 833 472" stroke-miterlimit="10"></path></g><g transform="translate(-142,-46) scale(1,1)"><g><path fill="none" stroke="none"></path><text fill="#000000" stroke="none" font-family="Arial" font-size="13px" font-style="normal" font-weight="normal" text-decoration="none" x="837" y="494.5">Sum</text></g></g><g transform="translate(-142,-46) scale(1,1)"><path fill="none" stroke="#000000" d="M 824 488 L 516 488" stroke-miterlimit="10"></path></g><g transform="translate(-142,-46) scale(1,1)"><path fill="#000000" stroke="none" d="M 526.1626748576241 483.790482243984 L 516 488 L 526.1626748576241 492.209517756016"></path></g><g transform="translate(-142,-46) scale(1,1)"><path fill="none" stroke="#000000" d="M 526.1626748576241 483.790482243984 L 516 488 L 526.1626748576241 492.209517756016 L 526.1626748576241 483.790482243984" stroke-miterlimit="10"></path></g><g transform="translate(-142,-46) scale(1,1)"><path fill="none" stroke="#000000" d="M 544 1608 L 485 1608" stroke-miterlimit="10"></path></g><g transform="translate(-142,-46) scale(1,1)"><path fill="#000000" stroke="none" d="M 495.16267485762415 1603.7904822439841 L 485 1608 L 495.16267485762415 1612.2095177560159"></path></g><g transform="translate(-142,-46) scale(1,1)"><path fill="none" stroke="#000000" d="M 495.16267485762415 1603.7904822439841 L 485 1608 L 495.16267485762415 1612.2095177560159 L 495.16267485762415 1603.7904822439841" stroke-miterlimit="10"></path></g><g transform="translate(-142,-46) scale(1,1)"><g><path fill="none" stroke="none"></path><text fill="#000000" stroke="none" font-family="Arial" font-size="13px" font-style="normal" font-weight="normal" text-decoration="none" x="504.5" y="1629.5">No</text></g></g><g transform="translate(-142,-46) scale(1,1)"><path fill="#ffffff" stroke="none" d="M 456 1606.5 C 456 1598.4918704 462.4918704 1592 470.5 1592 C 478.5081296 1592 485 1598.4918704 485 1606.5 C 485 1614.5081296 478.5081296 1621 470.5 1621 C 462.4918704 1621 456 1614.5081296 456 1606.5 Z"></path></g><g transform="translate(-142,-46) scale(1,1)"><path fill="none" stroke="#000000" d="M 456 1606.5 C 456 1598.4918704 462.4918704 1592 470.5 1592 C 478.5081296 1592 485 1598.4918704 485 1606.5 C 485 1614.5081296 478.5081296 1621 470.5 1621 C 462.4918704 1621 456 1614.5081296 456 1606.5 Z" stroke-miterlimit="10"></path></g><g transform="translate(-142,-46) scale(1,1)"><g><path fill="none" stroke="none"></path></g></g><g transform="translate(-142,-46) scale(1,1)"><path fill="none" stroke="#000000" d="M 600 1708 L 477 1708 M 477 1708 A 8 8 0 0 1 469 1700 L 469 1621" stroke-miterlimit="10"></path></g><g transform="translate(-142,-46) scale(1,1)"><path fill="#000000" stroke="none" d="M 473.209517756016 1631.162674857624 L 469 1621 L 464.790482243984 1631.162674857624"></path></g><g transform="translate(-142,-46) scale(1,1)"><path fill="none" stroke="#000000" d="M 473.209517756016 1631.162674857624 L 469 1621 L 464.790482243984 1631.162674857624 L 473.209517756016 1631.162674857624" stroke-miterlimit="10"></path></g><g transform="translate(-142,-46) scale(1,1)"><path fill="none" stroke="#000000" d="M 470 1592 L 470 1525" stroke-miterlimit="10"></path></g><g transform="translate(-142,-46) scale(1,1)"><path fill="#000000" stroke="none" d="M 474.209517756016 1535.162674857624 L 470 1525 L 465.790482243984 1535.162674857624"></path></g><g transform="translate(-142,-46) scale(1,1)"><path fill="none" stroke="#000000" d="M 474.209517756016 1535.162674857624 L 470 1525 L 465.790482243984 1535.162674857624 L 474.209517756016 1535.162674857624" stroke-miterlimit="10"></path></g><g transform="translate(-142,-46) scale(1,1)"><path fill="none" stroke="#000000" d="M 312 1043 L 312 1408 M 312 1408 A 8 8 0 0 0 320 1416 L 408 1416" stroke-miterlimit="10"></path></g><g transform="translate(-142,-46) scale(1,1)"><path fill="#000000" stroke="none" d="M 397.83732514237585 1420.2095177560159 L 408 1416 L 397.83732514237585 1411.7904822439841"></path></g><g transform="translate(-142,-46) scale(1,1)"><path fill="none" stroke="#000000" d="M 397.83732514237585 1420.2095177560159 L 408 1416 L 397.83732514237585 1411.7904822439841 L 397.83732514237585 1420.2095177560159" stroke-miterlimit="10"></path></g><g transform="translate(-142,-46) scale(1,1)"><g><path fill="none" stroke="none"></path><text fill="#000000" stroke="none" font-family="Arial" font-size="13px" font-style="normal" font-weight="normal" text-decoration="none" x="326.5" y="1060.5">No</text></g></g><g transform="translate(-142,-46) scale(1,1)"><path fill="none" stroke="#000000" d="M 456 1512 L 240 1512 M 240 1512 A 8 8 0 0 1 232 1504 L 232 1025 M 232 1025 A 8 8 0 0 1 240 1017 L 256 1017" stroke-miterlimit="10"></path></g><g transform="translate(-142,-46) scale(1,1)"><path fill="#000000" stroke="none" d="M 245.83732514237585 1021.209517756016 L 256 1017 L 245.83732514237585 1012.790482243984"></path></g><g transform="translate(-142,-46) scale(1,1)"><path fill="none" stroke="#000000" d="M 245.83732514237585 1021.209517756016 L 256 1017 L 245.83732514237585 1012.790482243984 L 245.83732514237585 1021.209517756016" stroke-miterlimit="10"></path></g><g transform="translate(-142,-46) scale(1,1)"><path fill="#ffffff" stroke="none" d="M 688 168 C 688 154.7451648 698.7451648 144 712 144 C 725.2548352 144 736 154.7451648 736 168 C 736 181.2548352 725.2548352 192 712 192 C 698.7451648 192 688 181.2548352 688 168 Z"></path></g><g transform="translate(-142,-46) scale(1,1)"><path fill="none" stroke="#000000" d="M 688 168 C 688 154.7451648 698.7451648 144 712 144 C 725.2548352 144 736 154.7451648 736 168 C 736 181.2548352 725.2548352 192 712 192 C 698.7451648 192 688 181.2548352 688 168 Z" stroke-miterlimit="10"></path></g><g transform="translate(-142,-46) scale(1,1)"><g><path fill="none" stroke="none"></path></g></g><g transform="translate(-142,-46) scale(1,1)"><path fill="#ffffff" stroke="none" d="M 688.5 336 L 742.5 336 Q 759 336 759 352.5 L 759 351.5 Q 759 368 742.5 368 L 688.5 368 Q 672 368 672 351.5 L 672 352.5 Q 672 336 688.5 336 Z"></path></g><g transform="translate(-142,-46) scale(1,1)"><path fill="none" stroke="#000000" d="M 688.5 336 L 742.5 336 Q 759 336 759 352.5 L 759 351.5 Q 759 368 742.5 368 L 688.5 368 Q 672 368 672 351.5 L 672 352.5 Q 672 336 688.5 336 Z" stroke-miterlimit="10"></path></g><g transform="translate(-142,-46) scale(1,1)"><g><path fill="none" stroke="none"></path><text fill="#000000" stroke="none" font-family="Arial" font-size="13px" font-style="normal" font-weight="normal" text-decoration="none" x="704" y="358.5">End</text></g></g><g transform="translate(-142,-46) scale(1,1)"><rect fill="#ffffff" stroke="none" x="672" y="224" width="80" height="71"></rect></g><g transform="translate(-142,-46) scale(1,1)"><path fill="none" stroke="#000000" d="M 672 224 L 752 224 L 752 295 L 672 295 L 672 224 Z Z" stroke-miterlimit="10"></path></g><g transform="translate(-142,-46) scale(1,1)"><g><path fill="none" stroke="none"></path><text fill="#000000" stroke="none" font-family="Arial" font-size="13px" font-style="normal" font-weight="normal" text-decoration="none" x="687.5" y="246.5">Increase</text><text fill="#000000" stroke="none" font-family="Arial" font-size="13px" font-style="normal" font-weight="normal" text-decoration="none" x="688.5" y="259.5">Sum By</text><text fill="#000000" stroke="none" font-family="Arial" font-size="13px" font-style="normal" font-weight="normal" text-decoration="none" x="695.5" y="272.5">Pulse</text><text fill="#000000" stroke="none" font-family="Arial" font-size="13px" font-style="normal" font-weight="normal" text-decoration="none" x="695.5" y="285.5">Value</text></g></g><g transform="translate(-142,-46) scale(1,1)"><path fill="none" stroke="#000000" d="M 712 192 L 712 224" stroke-miterlimit="10"></path></g><g transform="translate(-142,-46) scale(1,1)"><path fill="#000000" stroke="none" d="M 707.790482243984 213.83732514237585 L 712 224 L 716.209517756016 213.83732514237585"></path></g><g transform="translate(-142,-46) scale(1,1)"><path fill="none" stroke="#000000" d="M 707.790482243984 213.83732514237585 L 712 224 L 716.209517756016 213.83732514237585 L 707.790482243984 213.83732514237585" stroke-miterlimit="10"></path></g><g transform="translate(-142,-46) scale(1,1)"><g><path fill="none" stroke="none"></path><text fill="#000000" stroke="none" font-family="Arial" font-size="13px" font-style="normal" font-weight="normal" text-decoration="none" x="726.5" y="213.5">On Interrupt</text></g></g><g transform="translate(-142,-46) scale(1,1)"><path fill="none" stroke="#000000" d="M 713 295 L 713 336" stroke-miterlimit="10"></path></g><g transform="translate(-142,-46) scale(1,1)"><path fill="#000000" stroke="none" d="M 708.790482243984 325.83732514237585 L 713 336 L 717.209517756016 325.83732514237585"></path></g><g transform="translate(-142,-46) scale(1,1)"><path fill="none" stroke="#000000" d="M 708.790482243984 325.83732514237585 L 713 336 L 717.209517756016 325.83732514237585 L 708.790482243984 325.83732514237585" stroke-miterlimit="10"></path></g><g transform="translate(-142,-46) scale(1,1)"><path fill="none" stroke="#000000" d="M 312 960 L 312 992" stroke-miterlimit="10"></path></g><g transform="translate(-142,-46) scale(1,1)"><path fill="#000000" stroke="none" d="M 307.790482243984 981.8373251423759 L 312 992 L 316.209517756016 981.8373251423759"></path></g><g transform="translate(-142,-46) scale(1,1)"><path fill="none" stroke="#000000" d="M 307.790482243984 981.8373251423759 L 312 992 L 316.209517756016 981.8373251423759 L 307.790482243984 981.8373251423759" stroke-miterlimit="10"></path></g></g></svg>