<svg version="1.1" xmlns="http://www.w3.org/2000/svg" xmlns:xlink="http://www.w3.org/1999/xlink" width="861" height="1883"><defs></defs><g><g transform="translate(-142,2) scale(1,1)"><rect fill="#ffffff" stroke="none" x="208" y="1080" width="616" height="791"></rect></g><g transform="translate(-142,2) scale(1,1)"><path fill="none" stroke="#000000" d="M 208 1080 L 824 1080 L 824 1871 L 208 1871 L 208 1080 Z Z" stroke-miterlimit="10"></path></g><g transform="translate(-142,2) scale(1,1)"><rect fill="#ffffff" stroke="none" x="240" y="64" width="295" height="799"></rect></g><g transform="translate(-142,2) scale(1,1)"><path fill="none" stroke="#000000" d="M 240 64 L 535 64 L 535 863 L 240 863 L 240 64 Z Z" stroke-miterlimit="10"></path></g><g transform="translate(-142,2) scale(1,1)"><rect fill="#ffffff" stroke="none" x="272" y="896" width="82" height="32"></rect></g><g transform="translate(-142,2) scale(1,1)"><path fill="none" stroke="#000000" d="M 272 896 L 354 896 L 354 928 L 272 928 L 272 896 Z Z" stroke-miterlimit="10"></path></g><g transform="translate(-142,2) scale(1,1)"><g><path fill="none" stroke="none"></path><text fill="#000000" stroke="none" font-family="Arial" font-size="13px" font-style="normal" font-weight="normal" text-decoration="none" x="283" y="918.5">Main Loop</text></g></g><g transform="translate(-142,2) scale(1,1)"><path fill="#ffffff" stroke="none" d="M 256 1137.5 L 313.5 1112 L 371 1137.5 L 313.5 1163 L 256 1137.5"></path></g><g transform="translate(-142,2) scale(1,1)"><path fill="none" stroke="#000000" d="M 256 1137.5 L 313.5 1112 L 371 1137.5 L 313.5 1163 L 256 1137.5 L 256 1137.5" stroke-miterlimit="10"></path></g><g transform="translate(-142,2) scale(1,1)"><g><path fill="none" stroke="none"></path><text fill="#000000" stroke="none" font-family="Arial" font-size="13px" font-style="normal" font-weight="normal" text-decoration="none" x="286.5" y="1137.5">Has Sum</text><text fill="#000000" stroke="none" font-family="Arial" font-size="13px" font-style="normal" font-weight="normal" text-decoration="none" x="284.5" y="1150.5">Changed?</text></g></g><g transform="translate(-142,2) scale(1,1)"><rect fill="#ffffff" stroke="none" x="280" y="120" width="74" height="45"></rect></g><g transform="translate(-142,2) scale(1,1)"><path fill="none" stroke="#000000" d="M 280 120 L 354 120 L 354 165 L 280 165 L 280 120 Z Z" stroke-miterlimit="10"></path></g><g transform="translate(-142,2) scale(1,1)"><g><path fill="none" stroke="none"></path><text fill="#000000" stroke="none" font-family="Arial" font-size="13px" font-style="normal" font-weight="normal" text-decoration="none" x="300.5" y="142.5">Begin</text><text fill="#000000" stroke="none" font-family="Arial" font-size="13px" font-style="normal" font-weight="normal" text-decoration="none" x="300.5" y="155.5">Serial</text></g></g><g transform="translate(-142,2) scale(1,1)"><rect fill="#ffffff" stroke="none" x="280" y="336" width="74" height="58"></rect></g><g transform="translate(-142,2) scale(1,1)"><path fill="none" stroke="#000000" d="M 280 336 L 354 336 L 354 394 L 280 394 L 280 336 Z Z" stroke-miterlimit="10"></path></g><g transform="translate(-142,2) scale(1,1)"><g><path fill="none" stroke="none"></path><text fill="#000000" stroke="none" font-family="Arial" font-size="13px" font-style="normal" font-weight="normal" text-decoration="none" x="297" y="358.5">Enable</text><text fill="#000000" stroke="none" font-family="Arial" font-size="13px" font-style="normal" font-weight="normal" text-decoration="none" x="300" y="371.5">Reset</text><text fill="#000000" stroke="none" font-family="Arial" font-size="13px" font-style="normal" font-weight="normal" text-decoration="none" x="307.5" y="384.5">Pin</text></g></g><g transform="translate(-142,2) scale(1,1)"><rect fill="#ffffff" stroke="none" x="432" y="704" width="74" height="48"></rect></g><g transform="translate(-142,2) scale(1,1)"><path fill="none" stroke="#000000" d="M 432 704 L 506 704 L 506 752 L 432 752 L 432 704 Z Z" stroke-miterlimit="10"></path></g><g transform="translate(-142,2) scale(1,1)"><g><path fill="none" stroke="none"></path><text fill="#000000" stroke="none" font-family="Arial" font-size="13px" font-style="normal" font-weight="normal" text-decoration="none" x="445.5" y="726.5">Initialise</text><text fill="#000000" stroke="none" font-family="Arial" font-size="13px" font-style="normal" font-weight="normal" text-decoration="none" x="456.5" y="739.5">LCD</text></g></g><g transform="translate(-142,2) scale(1,1)"><path fill="#ffffff" stroke="none" d="M 262 728 L 315.5 696 L 369 728 L 315.5 760 L 262 728"></path></g><g transform="translate(-142,2) scale(1,1)"><path fill="none" stroke="#000000" d="M 262 728 L 315.5 696 L 369 728 L 315.5 760 L 262 728 L 262 728" stroke-miterlimit="10"></path></g><g transform="translate(-142,2) scale(1,1)"><g><path fill="none" stroke="none"></path><text fill="#000000" stroke="none" font-family="Arial" font-size="13px" font-style="normal" font-weight="normal" text-decoration="none" x="296" y="728">Is LCD</text><text fill="#000000" stroke="none" font-family="Arial" font-size="13px" font-style="normal" font-weight="normal" text-decoration="none" x="288.5" y="741">Enabled?</text></g></g><g transform="translate(-142,2) scale(1,1)"><path fill="none" stroke="#000000" d="M 369 728 L 432 728" stroke-miterlimit="10"></path></g><g transform="translate(-142,2) scale(1,1)"><path fill="#000000" stroke="none" d="M 421.83732514237585 732.209517756016 L 432 728 L 421.83732514237585 723.790482243984"></path></g><g transform="translate(-142,2) scale(1,1)"><path fill="none" stroke="#000000" d="M 421.83732514237585 732.209517756016 L 432 728 L 421.83732514237585 723.790482243984 L 421.83732514237585 732.209517756016" stroke-miterlimit="10"></path></g><g transform="translate(-142,2) scale(1,1)"><g><path fill="none" stroke="none"></path><text fill="#000000" stroke="none" font-family="Arial" font-size="13px" font-style="normal" font-weight="normal" text-decoration="none" x="388.5" y="719.5">Yes</text></g></g><g transform="translate(-142,2) scale(1,1)"><path fill="#ffffff" stroke="none" d="M 248 486.5 L 316.5 448 L 385 486.5 L 316.5 525 L 248 486.5"></path></g><g transform="translate(-142,2) scale(1,1)"><path fill="none" stroke="#000000" d="M 248 486.5 L 316.5 448 L 385 486.5 L 316.5 525 L 248 486.5 L 248 486.5" stroke-miterlimit="10"></path></g><g transform="translate(-142,2) scale(1,1)"><g><path fill="none" stroke="none"></path><text fill="#000000" stroke="none" font-family="Arial" font-size="13px" font-style="normal" font-weight="normal" text-decoration="none" x="311.5" y="480">Is</text><text fill="#000000" stroke="none" font-family="Arial" font-size="13px" font-style="normal" font-weight="normal" text-decoration="none" x="282" y="493">Persistence</text><text fill="#000000" stroke="none" font-family="Arial" font-size="13px" font-style="normal" font-weight="normal" text-decoration="none" x="289.5" y="506">Enabled?</text></g></g><g transform="translate(-142,2) scale(1,1)"><rect fill="#ffffff" stroke="none" x="440" y="464" width="76" height="48"></rect></g><g transform="translate(-142,2) scale(1,1)"><path fill="none" stroke="#000000" d="M 440 464 L 516 464 L 516 512 L 440 512 L 440 464 Z Z" stroke-miterlimit="10"></path></g><g transform="translate(-142,2) scale(1,1)"><g><path fill="none" stroke="none"></path><text fill="#000000" stroke="none" font-family="Arial" font-size="13px" font-style="normal" font-weight="normal" text-decoration="none" x="463" y="486.5">Read</text><text fill="#000000" stroke="none" font-family="Arial" font-size="13px" font-style="normal" font-weight="normal" text-decoration="none" x="464.5" y="499.5">Sum</text></g></g><g transform="translate(-142,2) scale(1,1)"><path fill="none" stroke="#000000" d="M 312 760 L 312 800" stroke-miterlimit="10"></path></g><g transform="translate(-142,2) scale(1,1)"><path fill="#000000" stroke="none" d="M 307.790482243984 789.8373251423759 L 312 800 L 316.209517756016 789.8373251423759"></path></g><g transform="translate(-142,2) scale(1,1)"><path fill="none" stroke="#000000" d="M 307.790482243984 789.8373251423759 L 312 800 L 316.209517756016 789.8373251423759 L 307.790482243984 789.8373251423759" stroke-miterlimit="10"></path></g><g transform="translate(-142,2) scale(1,1)"><g><path fill="none" stroke="none"></path><text fill="#000000" stroke="none" font-family="Arial" font-size="13px" font-style="normal" font-weight="normal" text-decoration="none" x="317.5" y="785.5">No</text></g></g><g transform="translate(-142,2) scale(1,1)"><path fill="none" stroke="#000000" d="M 385 491 L 440 491" stroke-miterlimit="10"></path></g><g transform="translate(-142,2) scale(1,1)"><path fill="#000000" stroke="none" d="M 429.83732514237585 495.209517756016 L 440 491 L 429.83732514237585 486.790482243984"></path></g><g transform="translate(-142,2) scale(1,1)"><path fill="none" stroke="#000000" d="M 429.83732514237585 495.209517756016 L 440 491 L 429.83732514237585 486.790482243984 L 429.83732514237585 495.209517756016" stroke-miterlimit="10"></path></g><g transform="translate(-142,2) scale(1,1)"><g><path fill="none" stroke="none"></path><text fill="#000000" stroke="none" font-family="Arial" font-size="13px" font-style="normal" font-weight="normal" text-decoration="none" x="400.5" y="482.5">Yes</text></g></g><g transform="translate(-142,2) scale(1,1)"><rect fill="#ffffff" stroke="none" x="272" y="568" width="80" height="32"></rect></g><g transform="translate(-142,2) scale(1,1)"><path fill="none" stroke="#000000" d="M 272 568 L 352 568 L 352 600 L 272 600 L 272 568 Z Z" stroke-miterlimit="10"></path></g><g transform="translate(-142,2) scale(1,1)"><g><path fill="none" stroke="none"></path><text fill="#000000" stroke="none" font-family="Arial" font-size="13px" font-style="normal" font-weight="normal" text-decoration="none" x="287" y="590.5">Sum = 0</text></g></g><g transform="translate(-142,2) scale(1,1)"><path fill="none" stroke="#000000" d="M 312 525 L 312 568" stroke-miterlimit="10"></path></g><g transform="translate(-142,2) scale(1,1)"><path fill="#000000" stroke="none" d="M 307.790482243984 557.8373251423759 L 312 568 L 316.209517756016 557.8373251423759"></path></g><g transform="translate(-142,2) scale(1,1)"><path fill="none" stroke="#000000" d="M 307.790482243984 557.8373251423759 L 312 568 L 316.209517756016 557.8373251423759 L 307.790482243984 557.8373251423759" stroke-miterlimit="10"></path></g><g transform="translate(-142,2) scale(1,1)"><g><path fill="none" stroke="none"></path><text fill="#000000" stroke="none" font-family="Arial" font-size="13px" font-style="normal" font-weight="normal" text-decoration="none" x="317.5" y="551.5">No</text></g></g><g transform="translate(-142,2) scale(1,1)"><rect fill="#ffffff" stroke="none" x="280" y="208" width="74" height="84"></rect></g><g transform="translate(-142,2) scale(1,1)"><path fill="none" stroke="#000000" d="M 280 208 L 354 208 L 354 292 L 280 292 L 280 208 Z Z" stroke-miterlimit="10"></path></g><g transform="translate(-142,2) scale(1,1)"><g><path fill="none" stroke="none"></path><text fill="#000000" stroke="none" font-family="Arial" font-size="13px" font-style="normal" font-weight="normal" text-decoration="none" x="297" y="230.5">Enable</text><text fill="#000000" stroke="none" font-family="Arial" font-size="13px" font-style="normal" font-weight="normal" text-decoration="none" x="304" y="243.5">Coin</text><text fill="#000000" stroke="none" font-family="Arial" font-size="13px" font-style="normal" font-weight="normal" text-decoration="none" x="293.5" y="256.5">Interrupt</text><text fill="#000000" stroke="none" font-family="Arial" font-size="13px" font-style="normal" font-weight="normal" text-decoration="none" x="307.5" y="269.5">Pin</text><text fill="#000000" stroke="none" font-family="Arial" font-size="13px" font-style="normal" font-weight="normal" text-decoration="none" x="295" y="282.5">(Rising)</text></g></g><g transform="translate(-142,2) scale(1,1)"><path fill="#ffffff" stroke="none" d="M 296 814.5 C 296 806.4918704 302.4918704 800 310.5 800 C 318.5081296 800 325 806.4918704 325 814.5 C 325 822.5081296 318.5081296 829 310.5 829 C 302.4918704 829 296 822.5081296 296 814.5 Z"></path></g><g transform="translate(-142,2) scale(1,1)"><path fill="none" stroke="#000000" d="M 296 814.5 C 296 806.4918704 302.4918704 800 310.5 800 C 318.5081296 800 325 806.4918704 325 814.5 C 325 822.5081296 318.5081296 829 310.5 829 C 302.4918704 829 296 822.5081296 296 814.5 Z" stroke-miterlimit="10"></path></g><g transform="translate(-142,2) scale(1,1)"><g><path fill="none" stroke="none"></path></g></g><g transform="translate(-142,2) scale(1,1)"><path fill="none" stroke="#000000" d="M 317 292 L 317 336" stroke-miterlimit="10"></path></g><g transform="translate(-142,2) scale(1,1)"><path fill="#000000" stroke="none" d="M 312.790482243984 325.83732514237585 L 317 336 L 321.209517756016 325.83732514237585"></path></g><g transform="translate(-142,2) scale(1,1)"><path fill="none" stroke="#000000" d="M 312.790482243984 325.83732514237585 L 317 336 L 321.209517756016 325.83732514237585 L 312.790482243984 325.83732514237585" stroke-miterlimit="10"></path></g><g transform="translate(-142,2) scale(1,1)"><path fill="none" stroke="#000000" d="M 317 165 L 317 208" stroke-miterlimit="10"></path></g><g transform="translate(-142,2) scale(1,1)"><path fill="#000000" stroke="none" d="M 312.790482243984 197.83732514237585 L 317 208 L 321.209517756016 197.83732514237585"></path></g><g transform="translate(-142,2) scale(1,1)"><path fill="none" stroke="#000000" d="M 312.790482243984 197.83732514237585 L 317 208 L 321.209517756016 197.83732514237585 L 312.790482243984 197.83732514237585" stroke-miterlimit="10"></path></g><g transform="translate(-142,2) scale(1,1)"><rect fill="#ffffff" stroke="none" x="280" y="8" width="74" height="32"></rect></g><g transform="translate(-142,2) scale(1,1)"><path fill="none" stroke="#000000" d="M 280 8 L 354 8 L 354 40 L 280 40 L 280 8 Z Z" stroke-miterlimit="10"></path></g><g transform="translate(-142,2) scale(1,1)"><g><path fill="none" stroke="none"></path><text fill="#000000" stroke="none" font-family="Arial" font-size="13px" font-style="normal" font-weight="normal" text-decoration="none" x="300" y="30.5">Setup</text></g></g><g transform="translate(-142,2) scale(1,1)"><path fill="none" stroke="#000000" d="M 317 40 L 317 120" stroke-miterlimit="10"></path></g><g transform="translate(-142,2) scale(1,1)"><path fill="#000000" stroke="none" d="M 312.790482243984 109.83732514237585 L 317 120 L 321.209517756016 109.83732514237585"></path></g><g transform="translate(-142,2) scale(1,1)"><path fill="none" stroke="#000000" d="M 312.790482243984 109.83732514237585 L 317 120 L 321.209517756016 109.83732514237585 L 312.790482243984 109.83732514237585" stroke-miterlimit="10"></path></g><g transform="translate(-142,2) scale(1,1)"><path fill="#ffffff" stroke="none" d="M 296 638.5 C 296 630.4918704 302.4918704 624 310.5 624 C 318.5081296 624 325 630.4918704 325 638.5 C 325 646.5081296 318.5081296 653 310.5 653 C 302.4918704 653 296 646.5081296 296 638.5 Z"></path></g><g transform="translate(-142,2) scale(1,1)"><path fill="none" stroke="#000000" d="M 296 638.5 C 296 630.4918704 302.4918704 624 310.5 624 C 318.5081296 624 325 630.4918704 325 638.5 C 325 646.5081296 318.5081296 653 310.5 653 C 302.4918704 653 296 646.5081296 296 638.5 Z" stroke-miterlimit="10"></path></g><g transform="translate(-142,2) scale(1,1)"><g><path fill="none" stroke="none"></path></g></g><g transform="translate(-142,2) scale(1,1)"><path fill="none" stroke="#000000" d="M 311 600 L 311 624" stroke-miterlimit="10"></path></g><g transform="translate(-142,2) scale(1,1)"><path fill="#000000" stroke="none" d="M 306.790482243984 613.8373251423759 L 311 624 L 315.209517756016 613.8373251423759"></path></g><g transform="translate(-142,2) scale(1,1)"><path fill="none" stroke="#000000" d="M 306.790482243984 613.8373251423759 L 311 624 L 315.209517756016 613.8373251423759 L 306.790482243984 613.8373251423759" stroke-miterlimit="10"></path></g><g transform="translate(-142,2) scale(1,1)"><path fill="none" stroke="#000000" d="M 480 512 L 480 632 M 480 632 A 8 8 0 0 1 472 640 L 325 640" stroke-miterlimit="10"></path></g><g transform="translate(-142,2) scale(1,1)"><path fill="#000000" stroke="none" d="M 335.16267485762415 635.790482243984 L 325 640 L 335.16267485762415 644.209517756016"></path></g><g transform="translate(-142,2) scale(1,1)"><path fill="none" stroke="#000000" d="M 335.16267485762415 635.790482243984 L 325 640 L 335.16267485762415 644.209517756016 L 335.16267485762415 635.790482243984" stroke-miterlimit="10"></path></g><g transform="translate(-142,2) scale(1,1)"><rect fill="#ffffff" stroke="none" x="432" y="792" width="74" height="45"></rect></g><g transform="translate(-142,2) scale(1,1)"><path fill="none" stroke="#000000" d="M 432 792 L 506 792 L 506 837 L 432 837 L 432 792 Z Z" stroke-miterlimit="10"></path></g><g transform="translate(-142,2) scale(1,1)"><g><path fill="none" stroke="none"></path><text fill="#000000" stroke="none" font-family="Arial" font-size="13px" font-style="normal" font-weight="normal" text-decoration="none" x="448.5" y="814.5">Update</text><text fill="#000000" stroke="none" font-family="Arial" font-size="13px" font-style="normal" font-weight="normal" text-decoration="none" x="456.5" y="827.5">LCD</text></g></g><g transform="translate(-142,2) scale(1,1)"><path fill="none" stroke="#000000" d="M 469 752 L 469 792" stroke-miterlimit="10"></path></g><g transform="translate(-142,2) scale(1,1)"><path fill="#000000" stroke="none" d="M 464.790482243984 781.8373251423759 L 469 792 L 473.209517756016 781.8373251423759"></path></g><g transform="translate(-142,2) scale(1,1)"><path fill="none" stroke="#000000" d="M 464.790482243984 781.8373251423759 L 469 792 L 473.209517756016 781.8373251423759 L 464.790482243984 781.8373251423759" stroke-miterlimit="10"></path></g><g transform="translate(-142,2) scale(1,1)"><path fill="none" stroke="#000000" d="M 432 814 L 325 814" stroke-miterlimit="10"></path></g><g transform="translate(-142,2) scale(1,1)"><path fill="#000000" stroke="none" d="M 335.16267485762415 809.790482243984 L 325 814 L 335.16267485762415 818.209517756016"></path></g><g transform="translate(-142,2) scale(1,1)"><path fill="none" stroke="#000000" d="M 335.16267485762415 809.790482243984 L 325 814 L 335.16267485762415 818.209517756016 L 335.16267485762415 809.790482243984" stroke-miterlimit="10"></path></g><g transform="translate(-142,2) scale(1,1)"><path fill="none" stroke="#000000" d="M 311 653 L 311 696" stroke-miterlimit="10"></path></g><g transform="translate(-142,2) scale(1,1)"><path fill="#000000" stroke="none" d="M 306.790482243984 685.8373251423759 L 311 696 L 315.209517756016 685.8373251423759"></path></g><g transform="translate(-142,2) scale(1,1)"><path fill="none" stroke="#000000" d="M 306.790482243984 685.8373251423759 L 311 696 L 315.209517756016 685.8373251423759 L 306.790482243984 685.8373251423759" stroke-miterlimit="10"></path></g><g transform="translate(-142,2) scale(1,1)"><path fill="none" stroke="#000000" d="M 310 829 L 310 896" stroke-miterlimit="10"></path></g><g transform="translate(-142,2) scale(1,1)"><path fill="#000000" stroke="none" d="M 305.790482243984 885.8373251423759 L 310 896 L 314.209517756016 885.8373251423759"></path></g><g transform="translate(-142,2) scale(1,1)"><path fill="none" stroke="#000000" d="M 305.790482243984 885.8373251423759 L 310 896 L 314.209517756016 885.8373251423759 L 305.790482243984 885.8373251423759" stroke-miterlimit="10"></path></g><g transform="translate(-142,2) scale(1,1)"><rect fill="#ffffff" stroke="none" x="880" y="896" width="113" height="32"></rect></g><g transform="translate(-142,2) scale(1,1)"><path fill="none" stroke="#000000" d="M 880 896 L 993 896 L 993 928 L 880 928 L 880 896 Z Z" stroke-miterlimit="10"></path></g><g transform="translate(-142,2) scale(1,1)"><path fill="none" stroke="#000000" d="M 890 896 L 890 928" stroke-miterlimit="10"></path></g><g transform="translate(-142,2) scale(1,1)"><path fill="none" stroke="#000000" d="M 880 906 L 993 906" stroke-miterlimit="10"></path></g><g transform="translate(-142,2) scale(1,1)"><g><path fill="none" stroke="none"></path><text fill="#000000" stroke="none" font-family="Arial" font-size="13px" font-style="normal" font-weight="normal" text-decoration="none" x="913" y="923.5">EEPROM</text></g></g><g transform="translate(-142,2) scale(1,1)"><path fill="none" stroke="#000000" d="M 936 896 L 936 496 M 936 496 A 8 8 0 0 0 928 488 L 877 488" stroke-miterlimit="10"></path></g><g transform="translate(-142,2) scale(1,1)"><path fill="#000000" stroke="none" d="M 887.1626748576241 483.790482243984 L 877 488 L 887.1626748576241 492.209517756016"></path></g><g transform="translate(-142,2) scale(1,1)"><path fill="none" stroke="#000000" d="M 887.1626748576241 483.790482243984 L 877 488 L 887.1626748576241 492.209517756016 L 887.1626748576241 483.790482243984" stroke-miterlimit="10"></path></g><g transform="translate(-142,2) scale(1,1)"><rect fill="#ffffff" stroke="none" x="592" y="1320" width="74" height="45"></rect></g><g transform="translate(-142,2) scale(1,1)"><path fill="none" stroke="#000000" d="M 592 1320 L 666 1320 L 666 1365 L 592 1365 L 592 1320 Z Z" stroke-miterlimit="10"></path></g><g transform="translate(-142,2) scale(1,1)"><g><path fill="none" stroke="none"></path><text fill="#000000" stroke="none" font-family="Arial" font-size="13px" font-style="normal" font-weight="normal" text-decoration="none" x="608.5" y="1342.5">Update</text><text fill="#000000" stroke="none" font-family="Arial" font-size="13px" font-style="normal" font-weight="normal" text-decoration="none" x="616.5" y="1355.5">LCD</text></g></g><g transform="translate(-142,2) scale(1,1)"><rect fill="#ffffff" stroke="none" x="600" y="1808" width="74" height="45"></rect></g><g transform="translate(-142,2) scale(1,1)"><path fill="none" stroke="#000000" d="M 600 1808 L 674 1808 L 674 1853 L 600 1853 L 600 1808 Z Z" stroke-miterlimit="10"></path></g><g transform="translate(-142,2) scale(1,1)"><g><path fill="none" stroke="none"></path><text fill="#000000" stroke="none" font-family="Arial" font-size="13px" font-style="normal" font-weight="normal" text-decoration="none" x="621.5" y="1830.5">Store</text><text fill="#000000" stroke="none" font-family="Arial" font-size="13px" font-style="normal" font-weight="normal" text-decoration="none" x="623.5" y="1843.5">Sum</text></g></g><g transform="translate(-142,2) scale(1,1)"><rect fill="#ffffff" stroke="none" x="424" y="1120" width="100.5" height="40"></rect></g><g transform="translate(-142,2) scale(1,1)"><path fill="#ffffff" stroke="none" d="M 524.5 1120 A 20.5 20.5 0 0 1 524.5 1161"></path></g><g transform="translate(-142,2) scale(1,1)"><path fill="none" stroke="#000000" d="M 424 1120 L 424 1160" stroke-miterlimit="10"></path></g><g transform="translate(-142,2) scale(1,1)"><path fill="none" stroke="#000000" d="M 424 1120 L 524.5 1120" stroke-miterlimit="10"></path></g><g transform="translate(-142,2) scale(1,1)"><path fill="none" stroke="#000000" d="M 424 1161 L 524.5 1161" stroke-miterlimit="10"></path></g><g transform="translate(-142,2) scale(1,1)"><path fill="none" stroke="#000000" d="M 524.5 1120 A 20.5 20.5 0 0 1 524.5 1161" stroke-miterlimit="10"></path></g><g transform="translate(-142,2) scale(1,1)"><g><path fill="none" stroke="none"></path><text fill="#000000" stroke="none" font-family="Arial" font-size="13px" font-style="normal" font-weight="normal" text-decoration="none" x="428.25" y="1142.5">UPDATE_DELAY</text></g></g><g transform="translate(-142,2) scale(1,1)"><path fill="none" stroke="#000000" d="M 371 1140 L 424 1140" stroke-miterlimit="10"></path></g><g transform="translate(-142,2) scale(1,1)"><path fill="#000000" stroke="none" d="M 413.83732514237585 1144.2095177560159 L 424 1140 L 413.83732514237585 1135.7904822439841"></path></g><g transform="translate(-142,2) scale(1,1)"><path fill="none" stroke="#000000" d="M 413.83732514237585 1144.2095177560159 L 424 1140 L 413.83732514237585 1135.7904822439841 L 413.83732514237585 1144.2095177560159" stroke-miterlimit="10"></path></g><g transform="translate(-142,2) scale(1,1)"><g><path fill="none" stroke="none"></path><text fill="#000000" stroke="none" font-family="Arial" font-size="13px" font-style="normal" font-weight="normal" text-decoration="none" x="385.5" y="1131.5">Yes</text></g></g><g transform="translate(-142,2) scale(1,1)"><rect fill="#ffffff" stroke="none" x="448" y="1208" width="74" height="58"></rect></g><g transform="translate(-142,2) scale(1,1)"><path fill="none" stroke="#000000" d="M 448 1208 L 522 1208 L 522 1266 L 448 1266 L 448 1208 Z Z" stroke-miterlimit="10"></path></g><g transform="translate(-142,2) scale(1,1)"><g><path fill="none" stroke="none"></path><text fill="#000000" stroke="none" font-family="Arial" font-size="13px" font-style="normal" font-weight="normal" text-decoration="none" x="470" y="1230.5">Send</text><text fill="#000000" stroke="none" font-family="Arial" font-size="13px" font-style="normal" font-weight="normal" text-decoration="none" x="460" y="1243.5">Sum Via</text><text fill="#000000" stroke="none" font-family="Arial" font-size="13px" font-style="normal" font-weight="normal" text-decoration="none" x="468.5" y="1256.5">Serial</text></g></g><g transform="translate(-142,2) scale(1,1)"><path fill="#ffffff" stroke="none" d="M 865 1224 L 909 1224 L 900 1256 L 856 1256 L 865 1224"></path></g><g transform="translate(-142,2) scale(1,1)"><path fill="none" stroke="#000000" d="M 865 1224 L 909 1224 L 900 1256 L 856 1256 L 865 1224 L 865 1224" stroke-miterlimit="10"></path></g><g transform="translate(-142,2) scale(1,1)"><g><path fill="none" stroke="none"></path><text fill="#000000" stroke="none" font-family="Arial" font-size="13px" font-style="normal" font-weight="normal" text-decoration="none" x="869" y="1246.5">Sum</text></g></g><g transform="translate(-142,2) scale(1,1)"><path fill="none" stroke="#000000" d="M 856 1240 L 522 1240" stroke-miterlimit="10"></path></g><g transform="translate(-142,2) scale(1,1)"><path fill="#000000" stroke="none" d="M 532.1626748576241 1235.7904822439841 L 522 1240 L 532.1626748576241 1244.2095177560159"></path></g><g transform="translate(-142,2) scale(1,1)"><path fill="none" stroke="#000000" d="M 532.1626748576241 1235.7904822439841 L 522 1240 L 532.1626748576241 1244.2095177560159 L 532.1626748576241 1235.7904822439841" stroke-miterlimit="10"></path></g><g transform="translate(-142,2) scale(1,1)"><path fill="none" stroke="#000000" d="M 485 1160 L 485 1208" stroke-miterlimit="10"></path></g><g transform="translate(-142,2) scale(1,1)"><path fill="#000000" stroke="none" d="M 480.790482243984 1197.837325142376 L 485 1208 L 489.209517756016 1197.837325142376"></path></g><g transform="translate(-142,2) scale(1,1)"><path fill="none" stroke="#000000" d="M 480.790482243984 1197.837325142376 L 485 1208 L 489.209517756016 1197.837325142376 L 480.790482243984 1197.837325142376" stroke-miterlimit="10"></path></g><g transform="translate(-142,2) scale(1,1)"><path fill="#ffffff" stroke="none" d="M 424 1337.5 L 480.5 1312 L 537 1337.5 L 480.5 1363 L 424 1337.5"></path></g><g transform="translate(-142,2) scale(1,1)"><path fill="none" stroke="#000000" d="M 424 1337.5 L 480.5 1312 L 537 1337.5 L 480.5 1363 L 424 1337.5 L 424 1337.5" stroke-miterlimit="10"></path></g><g transform="translate(-142,2) scale(1,1)"><g><path fill="none" stroke="none"></path><text fill="#000000" stroke="none" font-family="Arial" font-size="13px" font-style="normal" font-weight="normal" text-decoration="none" x="461" y="1337.5">Is LCD</text><text fill="#000000" stroke="none" font-family="Arial" font-size="13px" font-style="normal" font-weight="normal" text-decoration="none" x="453.5" y="1350.5">Enabled?</text></g></g><g transform="translate(-142,2) scale(1,1)"><path fill="none" stroke="#000000" d="M 483 1266 L 483 1312" stroke-miterlimit="10"></path></g><g transform="translate(-142,2) scale(1,1)"><path fill="#000000" stroke="none" d="M 478.790482243984 1301.837325142376 L 483 1312 L 487.209517756016 1301.837325142376"></path></g><g transform="translate(-142,2) scale(1,1)"><path fill="none" stroke="#000000" d="M 478.790482243984 1301.837325142376 L 483 1312 L 487.209517756016 1301.837325142376 L 478.790482243984 1301.837325142376" stroke-miterlimit="10"></path></g><g transform="translate(-142,2) scale(1,1)"><path fill="none" stroke="#000000" d="M 537 1341 L 592 1341" stroke-miterlimit="10"></path></g><g transform="translate(-142,2) scale(1,1)"><path fill="#000000" stroke="none" d="M 581.8373251423759 1345.2095177560159 L 592 1341 L 581.8373251423758 1336.7904822439841"></path></g><g transform="translate(-142,2) scale(1,1)"><path fill="none" stroke="#000000" d="M 581.8373251423759 1345.2095177560159 L 592 1341 L 581.8373251423758 1336.7904822439841 L 581.8373251423759 1345.2095177560159" stroke-miterlimit="10"></path></g><g transform="translate(-142,2) scale(1,1)"><g><path fill="none" stroke="none"></path><text fill="#000000" stroke="none" font-family="Arial" font-size="13px" font-style="normal" font-weight="normal" text-decoration="none" x="552.5" y="1332.5">Yes</text></g></g><g transform="translate(-142,2) scale(1,1)"><path fill="#ffffff" stroke="none" d="M 464 1430.5 C 464 1422.4918704 470.4918704 1416 478.5 1416 C 486.5081296 1416 493 1422.4918704 493 1430.5 C 493 1438.5081296 486.5081296 1445 478.5 1445 C 470.4918704 1445 464 1438.5081296 464 1430.5 Z"></path></g><g transform="translate(-142,2) scale(1,1)"><path fill="none" stroke="#000000" d="M 464 1430.5 C 464 1422.4918704 470.4918704 1416 478.5 1416 C 486.5081296 1416 493 1422.4918704 493 1430.5 C 493 1438.5081296 486.5081296 1445 478.5 1445 C 470.4918704 1445 464 1438.5081296 464 1430.5 Z" stroke-miterlimit="10"></path></g><g transform="translate(-142,2) scale(1,1)"><g><path fill="none" stroke="none"></path></g></g><g transform="translate(-142,2) scale(1,1)"><path fill="none" stroke="#000000" d="M 479 1363 L 479 1416" stroke-miterlimit="10"></path></g><g transform="translate(-142,2) scale(1,1)"><path fill="#000000" stroke="none" d="M 474.790482243984 1405.837325142376 L 479 1416 L 483.209517756016 1405.837325142376"></path></g><g transform="translate(-142,2) scale(1,1)"><path fill="none" stroke="#000000" d="M 474.790482243984 1405.837325142376 L 479 1416 L 483.209517756016 1405.837325142376 L 474.790482243984 1405.837325142376" stroke-miterlimit="10"></path></g><g transform="translate(-142,2) scale(1,1)"><g><path fill="none" stroke="none"></path><text fill="#000000" stroke="none" font-family="Arial" font-size="13px" font-style="normal" font-weight="normal" text-decoration="none" x="484.5" y="1394.5">No</text></g></g><g transform="translate(-142,2) scale(1,1)"><path fill="none" stroke="#000000" d="M 632 1365 L 632 1424 M 632 1424 A 8 8 0 0 1 624 1432 L 493 1432" stroke-miterlimit="10"></path></g><g transform="translate(-142,2) scale(1,1)"><path fill="#000000" stroke="none" d="M 503.16267485762415 1427.7904822439841 L 493 1432 L 503.16267485762415 1436.2095177560159"></path></g><g transform="translate(-142,2) scale(1,1)"><path fill="none" stroke="#000000" d="M 503.16267485762415 1427.7904822439841 L 493 1432 L 503.16267485762415 1436.2095177560159 L 503.16267485762415 1427.7904822439841" stroke-miterlimit="10"></path></g><g transform="translate(-142,2) scale(1,1)"><path fill="none" stroke="#000000" d="M 317 394 L 317 448" stroke-miterlimit="10"></path></g><g transform="translate(-142,2) scale(1,1)"><path fill="#000000" stroke="none" d="M 312.790482243984 437.83732514237585 L 317 448 L 321.209517756016 437.83732514237585"></path></g><g transform="translate(-142,2) scale(1,1)"><path fill="none" stroke="#000000" d="M 312.790482243984 437.83732514237585 L 317 448 L 321.209517756016 437.83732514237585 L 312.790482243984 437.83732514237585" stroke-miterlimit="10"></path></g><g transform="translate(-142,2) scale(1,1)"><path fill="#ffffff" stroke="none" d="M 408 1534.5 L 476.5 1496 L 545 1534.5 L 476.5 1573 L 408 1534.5"></path></g><g transform="translate(-142,2) scale(1,1)"><path fill="none" stroke="#000000" d="M 408 1534.5 L 476.5 1496 L 545 1534.5 L 476.5 1573 L 408 1534.5 L 408 1534.5" stroke-miterlimit="10"></path></g><g transform="translate(-142,2) scale(1,1)"><g><path fill="none" stroke="none"></path><text fill="#000000" stroke="none" font-family="Arial" font-size="13px" font-style="normal" font-weight="normal" text-decoration="none" x="471.5" y="1528">Is</text><text fill="#000000" stroke="none" font-family="Arial" font-size="13px" font-style="normal" font-weight="normal" text-decoration="none" x="442" y="1541">Persistence</text><text fill="#000000" stroke="none" font-family="Arial" font-size="13px" font-style="normal" font-weight="normal" text-decoration="none" x="449.5" y="1554">Enabled?</text></g></g><g transform="translate(-142,2) scale(1,1)"><path fill="none" stroke="#000000" d="M 478 1445 L 478 1496" stroke-miterlimit="10"></path></g><g transform="translate(-142,2) scale(1,1)"><path fill="#000000" stroke="none" d="M 473.790482243984 1485.837325142376 L 478 1496 L 482.209517756016 1485.837325142376"></path></g><g transform="translate(-142,2) scale(1,1)"><path fill="none" stroke="#000000" d="M 473.790482243984 1485.837325142376 L 478 1496 L 482.209517756016 1485.837325142376 L 473.790482243984 1485.837325142376" stroke-miterlimit="10"></path></g><g transform="translate(-142,2) scale(1,1)"><path fill="#ffffff" stroke="none" d="M 584 1534.5 L 640.5 1496 L 697 1534.5 L 640.5 1573 L 584 1534.5"></path></g><g transform="translate(-142,2) scale(1,1)"><path fill="none" stroke="#000000" d="M 584 1534.5 L 640.5 1496 L 697 1534.5 L 640.5 1573 L 584 1534.5 L 584 1534.5" stroke-miterlimit="10"></path></g><g transform="translate(-142,2) scale(1,1)"><g><path fill="none" stroke="none"></path><text fill="#000000" stroke="none" font-family="Arial" font-size="13px" font-style="normal" font-weight="normal" text-decoration="none" x="623.5" y="1528">Reset</text><text fill="#000000" stroke="none" font-family="Arial" font-size="13px" font-style="normal" font-weight="normal" text-decoration="none" x="621.5" y="1541">Button</text><text fill="#000000" stroke="none" font-family="Arial" font-size="13px" font-style="normal" font-weight="normal" text-decoration="none" x="613" y="1554">Pressed?</text></g></g><g transform="translate(-142,2) scale(1,1)"><path fill="none" stroke="#000000" d="M 545 1534 L 584 1534" stroke-miterlimit="10"></path></g><g transform="translate(-142,2) scale(1,1)"><path fill="#000000" stroke="none" d="M 573.8373251423759 1538.2095177560159 L 584 1534 L 573.8373251423758 1529.7904822439841"></path></g><g transform="translate(-142,2) scale(1,1)"><path fill="none" stroke="#000000" d="M 573.8373251423759 1538.2095177560159 L 584 1534 L 573.8373251423758 1529.7904822439841 L 573.8373251423759 1538.2095177560159" stroke-miterlimit="10"></path></g><g transform="translate(-142,2) scale(1,1)"><g><path fill="none" stroke="none"></path><text fill="#000000" stroke="none" font-family="Arial" font-size="13px" font-style="normal" font-weight="normal" text-decoration="none" x="552.5" y="1525.5">Yes</text></g></g><g transform="translate(-142,2) scale(1,1)"><rect fill="#ffffff" stroke="none" x="736" y="1520" width="74" height="32"></rect></g><g transform="translate(-142,2) scale(1,1)"><path fill="none" stroke="#000000" d="M 736 1520 L 810 1520 L 810 1552 L 736 1552 L 736 1520 Z Z" stroke-miterlimit="10"></path></g><g transform="translate(-142,2) scale(1,1)"><g><path fill="none" stroke="none"></path><text fill="#000000" stroke="none" font-family="Arial" font-size="13px" font-style="normal" font-weight="normal" text-decoration="none" x="748" y="1542.5">Sum = 0</text></g></g><g transform="translate(-142,2) scale(1,1)"><path fill="#ffffff" stroke="none" d="M 161 568 L 205 568 L 196 600 L 152 600 L 161 568"></path></g><g transform="translate(-142,2) scale(1,1)"><path fill="none" stroke="#000000" d="M 161 568 L 205 568 L 196 600 L 152 600 L 161 568 L 161 568" stroke-miterlimit="10"></path></g><g transform="translate(-142,2) scale(1,1)"><g><path fill="none" stroke="none"></path><text fill="#000000" stroke="none" font-family="Arial" font-size="13px" font-style="normal" font-weight="normal" text-decoration="none" x="165" y="590.5">Sum</text></g></g><g transform="translate(-142,2) scale(1,1)"><path fill="none" stroke="#000000" d="M 272 584 L 205 584" stroke-miterlimit="10"></path></g><g transform="translate(-142,2) scale(1,1)"><path fill="#000000" stroke="none" d="M 215.16267485762415 579.790482243984 L 205 584 L 215.16267485762415 588.209517756016"></path></g><g transform="translate(-142,2) scale(1,1)"><path fill="none" stroke="#000000" d="M 215.16267485762415 579.790482243984 L 205 584 L 215.16267485762415 588.209517756016 L 215.16267485762415 579.790482243984" stroke-miterlimit="10"></path></g><g transform="translate(-142,2) scale(1,1)"><path fill="#ffffff" stroke="none" d="M 865 1520 L 909 1520 L 900 1552 L 856 1552 L 865 1520"></path></g><g transform="translate(-142,2) scale(1,1)"><path fill="none" stroke="#000000" d="M 865 1520 L 909 1520 L 900 1552 L 856 1552 L 865 1520 L 865 1520" stroke-miterlimit="10"></path></g><g transform="translate(-142,2) scale(1,1)"><g><path fill="none" stroke="none"></path><text fill="#000000" stroke="none" font-family="Arial" font-size="13px" font-style="normal" font-weight="normal" text-decoration="none" x="869" y="1542.5">Sum</text></g></g><g transform="translate(-142,2) scale(1,1)"><path fill="none" stroke="#000000" d="M 810 1536 L 856 1536" stroke-miterlimit="10"></path></g><g transform="translate(-142,2) scale(1,1)"><path fill="#000000" stroke="none" d="M 845.8373251423759 1540.2095177560159 L 856 1536 L 845.8373251423758 1531.7904822439841"></path></g><g transform="translate(-142,2) scale(1,1)"><path fill="none" stroke="#000000" d="M 845.8373251423759 1540.2095177560159 L 856 1536 L 845.8373251423758 1531.7904822439841 L 845.8373251423759 1540.2095177560159" stroke-miterlimit="10"></path></g><g transform="translate(-142,2) scale(1,1)"><path fill="none" stroke="#000000" d="M 697 1535 L 736 1535" stroke-miterlimit="10"></path></g><g transform="translate(-142,2) scale(1,1)"><path fill="#000000" stroke="none" d="M 725.8373251423759 1539.2095177560159 L 736 1535 L 725.8373251423758 1530.7904822439841"></path></g><g transform="translate(-142,2) scale(1,1)"><path fill="none" stroke="#000000" d="M 725.8373251423759 1539.2095177560159 L 736 1535 L 725.8373251423758 1530.7904822439841 L 725.8373251423759 1539.2095177560159" stroke-miterlimit="10"></path></g><g transform="translate(-142,2) scale(1,1)"><g><path fill="none" stroke="none"></path><text fill="#000000" stroke="none" font-family="Arial" font-size="13px" font-style="normal" font-weight="normal" text-decoration="none" x="704.5" y="1526.5">Yes</text></g></g><g transform="translate(-142,2) scale(1,1)"><path fill="#ffffff" stroke="none" d="M 624 1630.5 C 624 1622.4918704 630.4918704 1616 638.5 1616 C 646.5081296 1616 653 1622.4918704 653 1630.5 C 653 1638.5081296 646.5081296 1645 638.5 1645 C 630.4918704 1645 624 1638.5081296 624 1630.5 Z"></path></g><g transform="translate(-142,2) scale(1,1)"><path fill="none" stroke="#000000" d="M 624 1630.5 C 624 1622.4918704 630.4918704 1616 638.5 1616 C 646.5081296 1616 653 1622.4918704 653 1630.5 C 653 1638.5081296 646.5081296 1645 638.5 1645 C 630.4918704 1645 624 1638.5081296 624 1630.5 Z" stroke-miterlimit="10"></path></g><g transform="translate(-142,2) scale(1,1)"><g><path fill="none" stroke="none"></path></g></g><g transform="translate(-142,2) scale(1,1)"><path fill="none" stroke="#000000" d="M 639 1573 L 639 1616" stroke-miterlimit="10"></path></g><g transform="translate(-142,2) scale(1,1)"><path fill="#000000" stroke="none" d="M 634.790482243984 1605.837325142376 L 639 1616 L 643.209517756016 1605.837325142376"></path></g><g transform="translate(-142,2) scale(1,1)"><path fill="none" stroke="#000000" d="M 634.790482243984 1605.837325142376 L 639 1616 L 643.209517756016 1605.837325142376 L 634.790482243984 1605.837325142376" stroke-miterlimit="10"></path></g><g transform="translate(-142,2) scale(1,1)"><g><path fill="none" stroke="none"></path><text fill="#000000" stroke="none" font-family="Arial" font-size="13px" font-style="normal" font-weight="normal" text-decoration="none" x="644.5" y="1599.5">No</text></g></g><g transform="translate(-142,2) scale(1,1)"><path fill="none" stroke="#000000" d="M 776 1552 L 776 1624 M 776 1624 A 8 8 0 0 1 768 1632 L 653 1632" stroke-miterlimit="10"></path></g><g transform="translate(-142,2) scale(1,1)"><path fill="#000000" stroke="none" d="M 663.1626748576241 1627.7904822439841 L 653 1632 L 663.1626748576241 1636.2095177560159"></path></g><g transform="translate(-142,2) scale(1,1)"><path fill="none" stroke="#000000" d="M 663.1626748576241 1627.7904822439841 L 653 1632 L 663.1626748576241 1636.2095177560159 L 663.1626748576241 1627.7904822439841" stroke-miterlimit="10"></path></g><g transform="translate(-142,2) scale(1,1)"><path fill="#ffffff" stroke="none" d="M 456 1630.5 C 456 1622.4918704 462.4918704 1616 470.5 1616 C 478.5081296 1616 485 1622.4918704 485 1630.5 C 485 1638.5081296 478.5081296 1645 470.5 1645 C 462.4918704 1645 456 1638.5081296 456 1630.5 Z"></path></g><g transform="translate(-142,2) scale(1,1)"><path fill="none" stroke="#000000" d="M 456 1630.5 C 456 1622.4918704 462.4918704 1616 470.5 1616 C 478.5081296 1616 485 1622.4918704 485 1630.5 C 485 1638.5081296 478.5081296 1645 470.5 1645 C 462.4918704 1645 456 1638.5081296 456 1630.5 Z" stroke-miterlimit="10"></path></g><g transform="translate(-142,2) scale(1,1)"><g><path fill="none" stroke="none"></path></g></g><g transform="translate(-142,2) scale(1,1)"><path fill="none" stroke="#000000" d="M 472 1573 L 472 1616" stroke-miterlimit="10"></path></g><g transform="translate(-142,2) scale(1,1)"><path fill="#000000" stroke="none" d="M 467.790482243984 1605.837325142376 L 472 1616 L 476.209517756016 1605.837325142376"></path></g><g transform="translate(-142,2) scale(1,1)"><path fill="none" stroke="#000000" d="M 467.790482243984 1605.837325142376 L 472 1616 L 476.209517756016 1605.837325142376 L 467.790482243984 1605.837325142376" stroke-miterlimit="10"></path></g><g transform="translate(-142,2) scale(1,1)"><g><path fill="none" stroke="none"></path><text fill="#000000" stroke="none" font-family="Arial" font-size="13px" font-style="normal" font-weight="normal" text-decoration="none" x="477.5" y="1599.5">No</text></g></g><g transform="translate(-142,2) scale(1,1)"><path fill="#ffffff" stroke="none" d="M 544 1728 L 637.5 1696 L 731 1728 L 637.5 1760 L 544 1728"></path></g><g transform="translate(-142,2) scale(1,1)"><path fill="none" stroke="#000000" d="M 544 1728 L 637.5 1696 L 731 1728 L 637.5 1760 L 544 1728 L 544 1728" stroke-miterlimit="10"></path></g><g transform="translate(-142,2) scale(1,1)"><g><path fill="none" stroke="none"></path><text fill="#000000" stroke="none" font-family="Arial" font-size="13px" font-style="normal" font-weight="normal" text-decoration="none" x="590.5" y="1728">STORE_DELAY</text><text fill="#000000" stroke="none" font-family="Arial" font-size="13px" font-style="normal" font-weight="normal" text-decoration="none" x="605" y="1741">Exceeded?</text></g></g><g transform="translate(-142,2) scale(1,1)"><path fill="none" stroke="#000000" d="M 638 1645 L 638 1696" stroke-miterlimit="10"></path></g><g transform="translate(-142,2) scale(1,1)"><path fill="#000000" stroke="none" d="M 633.790482243984 1685.837325142376 L 638 1696 L 642.209517756016 1685.837325142376"></path></g><g transform="translate(-142,2) scale(1,1)"><path fill="none" stroke="#000000" d="M 633.790482243984 1685.837325142376 L 638 1696 L 642.209517756016 1685.837325142376 L 633.790482243984 1685.837325142376" stroke-miterlimit="10"></path></g><g transform="translate(-142,2) scale(1,1)"><path fill="none" stroke="#000000" d="M 637 1760 L 637 1808" stroke-miterlimit="10"></path></g><g transform="translate(-142,2) scale(1,1)"><path fill="#000000" stroke="none" d="M 632.790482243984 1797.837325142376 L 637 1808 L 641.209517756016 1797.837325142376"></path></g><g transform="translate(-142,2) scale(1,1)"><path fill="none" stroke="#000000" d="M 632.790482243984 1797.837325142376 L 637 1808 L 641.209517756016 1797.837325142376 L 632.790482243984 1797.837325142376" stroke-miterlimit="10"></path></g><g transform="translate(-142,2) scale(1,1)"><g><path fill="none" stroke="none"></path><text fill="#000000" stroke="none" font-family="Arial" font-size="13px" font-style="normal" font-weight="normal" text-decoration="none" x="639.5" y="1789.5">Yes</text></g></g><g transform="translate(-142,2) scale(1,1)"><path fill="none" stroke="#000000" d="M 909 1832 L 928 1832 M 928 1832 A 8 8 0 0 0 936 1824 L 936 928" stroke-miterlimit="10"></path></g><g transform="translate(-142,2) scale(1,1)"><path fill="#000000" stroke="none" d="M 940.209517756016 938.1626748576241 L 936 928 L 931.790482243984 938.1626748576241"></path></g><g transform="translate(-142,2) scale(1,1)"><path fill="none" stroke="#000000" d="M 940.209517756016 938.1626748576241 L 936 928 L 931.790482243984 938.1626748576241 L 940.209517756016 938.1626748576241" stroke-miterlimit="10"></path></g><g transform="translate(-142,2) scale(1,1)"><path fill="#ffffff" stroke="none" d="M 865 1816 L 909 1816 L 900 1848 L 856 1848 L 865 1816"></path></g><g transform="translate(-142,2) scale(1,1)"><path fill="none" stroke="#000000" d="M 865 1816 L 909 1816 L 900 1848 L 856 1848 L 865 1816 L 865 1816" stroke-miterlimit="10"></path></g><g transform="translate(-142,2) scale(1,1)"><g><path fill="none" stroke="none"></path><text fill="#000000" stroke="none" font-family="Arial" font-size="13px" font-style="normal" font-weight="normal" text-decoration="none" x="869" y="1838.5">Sum</text></g></g><g transform="translate(-142,2) scale(1,1)"><path fill="none" stroke="#000000" d="M 674 1832 L 856 1832" stroke-miterlimit="10"></path></g><g transform="translate(-142,2) scale(1,1)"><path fill="#000000" stroke="none" d="M 845.8373251423759 1836.2095177560159 L 856 1832 L 845.8373251423758 1827.7904822439841"></path></g><g transform="translate(-142,2) scale(1,1)"><path fill="none" stroke="#000000" d="M 845.8373251423759 1836.2095177560159 L 856 1832 L 845.8373251423758 1827.7904822439841 L 845.8373251423759 1836.2095177560159" stroke-miterlimit="10"></path></g><g transform="translate(-142,2) scale(1,1)"><path fill="#ffffff" stroke="none" d="M 833 472 L 877 472 L 868 504 L 824 504 L 833 472"></path></g><g transform="translate(-142,2) scale(1,1)"><path fill="none" stroke="#000000" d="M 833 472 L 877 472 L 868 504 L 824 504 L 833 472 L 833 472" stroke-miterlimit="10"></path></g><g transform="translate(-142,2) scale(1,1)"><g><path fill="none" stroke="none"></path><text fill="#000000" stroke="none" font-family="Arial" font-size="13px" font-style="normal" font-weight="normal" text-decoration="none" x="837" y="494.5">Sum</text></g></g><g transform="translate(-142,2) scale(1,1)"><path fill="none" stroke="#000000" d="M 824 488 L 516 488" stroke-miterlimit="10"></path></g><g transform="translate(-142,2) scale(1,1)"><path fill="#000000" stroke="none" d="M 526.1626748576241 483.790482243984 L 516 488 L 526.1626748576241 492.209517756016"></path></g><g transform="translate(-142,2) scale(1,1)"><path fill="none" stroke="#000000" d="M 526.1626748576241 483.790482243984 L 516 488 L 526.1626748576241 492.209517756016 L 526.1626748576241 483.790482243984" stroke-miterlimit="10"></path></g><g transform="translate(-142,2) scale(1,1)"><path fill="none" stroke="#000000" d="M 544 1728 L 485 1728" stroke-miterlimit="10"></path></g><g transform="translate(-142,2) scale(1,1)"><path fill="#000000" stroke="none" d="M 495.16267485762415 1723.7904822439841 L 485 1728 L 495.16267485762415 1732.2095177560159"></path></g><g transform="translate(-142,2) scale(1,1)"><path fill="none" stroke="#000000" d="M 495.16267485762415 1723.7904822439841 L 485 1728 L 495.16267485762415 1732.2095177560159 L 495.16267485762415 1723.7904822439841" stroke-miterlimit="10"></path></g><g transform="translate(-142,2) scale(1,1)"><g><path fill="none" stroke="none"></path><text fill="#000000" stroke="none" font-family="Arial" font-size="13px" font-style="normal" font-weight="normal" text-decoration="none" x="504.5" y="1749.5">No</text></g></g><g transform="translate(-142,2) scale(1,1)"><path fill="#ffffff" stroke="none" d="M 456 1726.5 C 456 1718.4918704 462.4918704 1712 470.5 1712 C 478.5081296 1712 485 1718.4918704 485 1726.5 C 485 1734.5081296 478.5081296 1741 470.5 1741 C 462.4918704 1741 456 1734.5081296 456 1726.5 Z"></path></g><g transform="translate(-142,2) scale(1,1)"><path fill="none" stroke="#000000" d="M 456 1726.5 C 456 1718.4918704 462.4918704 1712 470.5 1712 C 478.5081296 1712 485 1718.4918704 485 1726.5 C 485 1734.5081296 478.5081296 1741 470.5 1741 C 462.4918704 1741 456 1734.5081296 456 1726.5 Z" stroke-miterlimit="10"></path></g><g transform="translate(-142,2) scale(1,1)"><g><path fill="none" stroke="none"></path></g></g><g transform="translate(-142,2) scale(1,1)"><path fill="none" stroke="#000000" d="M 600 1828 L 477 1828 M 477 1828 A 8 8 0 0 1 469 1820 L 469 1741" stroke-miterlimit="10"></path></g><g transform="translate(-142,2) scale(1,1)"><path fill="#000000" stroke="none" d="M 473.209517756016 1751.162674857624 L 469 1741 L 464.790482243984 1751.162674857624"></path></g><g transform="translate(-142,2) scale(1,1)"><path fill="none" stroke="#000000" d="M 473.209517756016 1751.162674857624 L 469 1741 L 464.790482243984 1751.162674857624 L 473.209517756016 1751.162674857624" stroke-miterlimit="10"></path></g><g transform="translate(-142,2) scale(1,1)"><path fill="none" stroke="#000000" d="M 470 1712 L 470 1645" stroke-miterlimit="10"></path></g><g transform="translate(-142,2) scale(1,1)"><path fill="#000000" stroke="none" d="M 474.209517756016 1655.162674857624 L 470 1645 L 465.790482243984 1655.162674857624"></path></g><g transform="translate(-142,2) scale(1,1)"><path fill="none" stroke="#000000" d="M 474.209517756016 1655.162674857624 L 470 1645 L 465.790482243984 1655.162674857624 L 474.209517756016 1655.162674857624" stroke-miterlimit="10"></path></g><g transform="translate(-142,2) scale(1,1)"><path fill="none" stroke="#000000" d="M 312 1163 L 312 1528 M 312 1528 A 8 8 0 0 0 320 1536 L 408 1536" stroke-miterlimit="10"></path></g><g transform="translate(-142,2) scale(1,1)"><path fill="#000000" stroke="none" d="M 397.83732514237585 1540.2095177560159 L 408 1536 L 397.83732514237585 1531.7904822439841"></path></g><g transform="translate(-142,2) scale(1,1)"><path fill="none" stroke="#000000" d="M 397.83732514237585 1540.2095177560159 L 408 1536 L 397.83732514237585 1531.7904822439841 L 397.83732514237585 1540.2095177560159" stroke-miterlimit="10"></path></g><g transform="translate(-142,2) scale(1,1)"><g><path fill="none" stroke="none"></path><text fill="#000000" stroke="none" font-family="Arial" font-size="13px" font-style="normal" font-weight="normal" text-decoration="none" x="326.5" y="1180.5">No</text></g></g><g transform="translate(-142,2) scale(1,1)"><path fill="none" stroke="#000000" d="M 456 1632 L 240 1632 M 240 1632 A 8 8 0 0 1 232 1624 L 232 1145 M 232 1145 A 8 8 0 0 1 240 1137 L 256 1137" stroke-miterlimit="10"></path></g><g transform="translate(-142,2) scale(1,1)"><path fill="#000000" stroke="none" d="M 245.83732514237585 1141.2095177560159 L 256 1137 L 245.83732514237585 1132.7904822439841"></path></g><g transform="translate(-142,2) scale(1,1)"><path fill="none" stroke="#000000" d="M 245.83732514237585 1141.2095177560159 L 256 1137 L 245.83732514237585 1132.7904822439841 L 245.83732514237585 1141.2095177560159" stroke-miterlimit="10"></path></g><g transform="translate(-142,2) scale(1,1)"><path fill="#ffffff" stroke="none" d="M 688 168 C 688 154.7451648 698.7451648 144 712 144 C 725.2548352 144 736 154.7451648 736 168 C 736 181.2548352 725.2548352 192 712 192 C 698.7451648 192 688 181.2548352 688 168 Z"></path></g><g transform="translate(-142,2) scale(1,1)"><path fill="none" stroke="#000000" d="M 688 168 C 688 154.7451648 698.7451648 144 712 144 C 725.2548352 144 736 154.7451648 736 168 C 736 181.2548352 725.2548352 192 712 192 C 698.7451648 192 688 181.2548352 688 168 Z" stroke-miterlimit="10"></path></g><g transform="translate(-142,2) scale(1,1)"><g><path fill="none" stroke="none"></path></g></g><g transform="translate(-142,2) scale(1,1)"><path fill="#ffffff" stroke="none" d="M 688.5 336 L 742.5 336 Q 759 336 759 352.5 L 759 351.5 Q 759 368 742.5 368 L 688.5 368 Q 672 368 672 351.5 L 672 352.5 Q 672 336 688.5 336 Z"></path></g><g transform="translate(-142,2) scale(1,1)"><path fill="none" stroke="#000000" d="M 688.5 336 L 742.5 336 Q 759 336 759 352.5 L 759 351.5 Q 759 368 742.5 368 L 688.5 368 Q 672 368 672 351.5 L 672 352.5 Q 672 336 688.5 336 Z" stroke-miterlimit="10"></path></g><g transform="translate(-142,2) scale(1,1)"><g><path fill="none" stroke="none"></path><text fill="#000000" stroke="none" font-family="Arial" font-size="13px" font-style="normal" font-weight="normal" text-decoration="none" x="704" y="358.5">End</text></g></g><g transform="translate(-142,2) scale(1,1)"><rect fill="#ffffff" stroke="none" x="672" y="224" width="80" height="71"></rect></g><g transform="translate(-142,2) scale(1,1)"><path fill="none" stroke="#000000" d="M 672 224 L 752 224 L 752 295 L 672 295 L 672 224 Z Z" stroke-miterlimit="10"></path></g><g transform="translate(-142,2) scale(1,1)"><g><path fill="none" stroke="none"></path><text fill="#000000" stroke="none" font-family="Arial" font-size="13px" font-style="normal" font-weight="normal" text-decoration="none" x="687.5" y="246.5">Increase</text><text fill="#000000" stroke="none" font-family="Arial" font-size="13px" font-style="normal" font-weight="normal" text-decoration="none" x="688.5" y="259.5">Sum By</text><text fill="#000000" stroke="none" font-family="Arial" font-size="13px" font-style="normal" font-weight="normal" text-decoration="none" x="695.5" y="272.5">Pulse</text><text fill="#000000" stroke="none" font-family="Arial" font-size="13px" font-style="normal" font-weight="normal" text-decoration="none" x="695.5" y="285.5">Value</text></g></g><g transform="translate(-142,2) scale(1,1)"><path fill="none" stroke="#000000" d="M 712 192 L 712 224" stroke-miterlimit="10"></path></g><g transform="translate(-142,2) scale(1,1)"><path fill="#000000" stroke="none" d="M 707.790482243984 213.83732514237585 L 712 224 L 716.209517756016 213.83732514237585"></path></g><g transform="translate(-142,2) scale(1,1)"><path fill="none" stroke="#000000" d="M 707.790482243984 213.83732514237585 L 712 224 L 716.209517756016 213.83732514237585 L 707.790482243984 213.83732514237585" stroke-miterlimit="10"></path></g><g transform="translate(-142,2) scale(1,1)"><g><path fill="none" stroke="none"></path><text fill="#000000" stroke="none" font-family="Arial" font-size="13px" font-style="normal" font-weight="normal" text-decoration="none" x="726.5" y="213.5">On Interrupt</text></g></g><g transform="translate(-142,2) scale(1,1)"><path fill="none" stroke="#000000" d="M 713 295 L 713 336" stroke-miterlimit="10"></path></g><g transform="translate(-142,2) scale(1,1)"><path fill="#000000" stroke="none" d="M 708.790482243984 325.83732514237585 L 713 336 L 717.209517756016 325.83732514237585"></path></g><g transform="translate(-142,2) scale(1,1)"><path fill="none" stroke="#000000" d="M 708.790482243984 325.83732514237585 L 713 336 L 717.209517756016 325.83732514237585 L 708.790482243984 325.83732514237585" stroke-miterlimit="10"></path></g><g transform="translate(-142,2) scale(1,1)"><path fill="none" stroke="#000000" d="M 312 928 L 312 1112" stroke-miterlimit="10"></path></g><g transform="translate(-142,2) scale(1,1)"><path fill="#000000" stroke="none" d="M 307.790482243984 1101.837325142376 L 312 1112 L 316.209517756016 1101.837325142376"></path></g><g transform="translate(-142,2) scale(1,1)"><path fill="none" stroke="#000000" d="M 307.790482243984 1101.837325142376 L 312 1112 L 316.209517756016 1101.837325142376 L 307.790482243984 1101.837325142376" stroke-miterlimit="10"></path></g></g></svg>